<svg width="685" height="932" viewBox="0 0 685 932" fill="none" xmlns="http://www.w3.org/2000/svg">
<rect width="430" height="932" rx="14" fill="#D9D9D9"/>
<line y1="-2" x2="375.001" y2="-2" transform="matrix(0.999996 0.00266099 -0.00860292 0.999963 28 687)" stroke="#BBBBBB" stroke-width="4"/>
<line y1="-2" x2="375.001" y2="-2" transform="matrix(0.999996 0.00266099 -0.00860292 0.999963 28 804.001)" stroke="#BBBBBB" stroke-width="4"/>
<line y1="-2" x2="375.001" y2="-2" transform="matrix(0.999996 0.00266099 -0.00860292 0.999963 28 726)" stroke="#BBBBBB" stroke-width="4"/>
<line y1="-2" x2="375.001" y2="-2" transform="matrix(0.999996 0.00266099 -0.00860292 0.999963 28 843.001)" stroke="#BBBBBB" stroke-width="4"/>
<line y1="-2" x2="375.001" y2="-2" transform="matrix(0.999996 0.00266099 -0.00860292 0.999963 28 765)" stroke="#BBBBBB" stroke-width="4"/>
<line y1="-2" x2="375.001" y2="-2" transform="matrix(0.999996 0.00266099 -0.00860292 0.999963 28 882.001)" stroke="#BBBBBB" stroke-width="4"/>
<line y1="-2" x2="375.001" y2="-2" transform="matrix(0.999996 0.00266099 -0.00860292 0.999963 28 713)" stroke="#BBBBBB" stroke-width="4"/>
<line y1="-2" x2="375.001" y2="-2" transform="matrix(0.999996 0.00266099 -0.00860292 0.999963 28 830.001)" stroke="#BBBBBB" stroke-width="4"/>
<line y1="-2" x2="375.001" y2="-2" transform="matrix(0.999996 0.00266099 -0.00860292 0.999963 28 752)" stroke="#BBBBBB" stroke-width="4"/>
<line y1="-2" x2="375.001" y2="-2" transform="matrix(0.999996 0.00266099 -0.00860292 0.999963 28 869.001)" stroke="#BBBBBB" stroke-width="4"/>
<line y1="-2" x2="375.001" y2="-2" transform="matrix(0.999996 0.00266099 -0.00860292 0.999963 28 791)" stroke="#BBBBBB" stroke-width="4"/>
<line y1="-2" x2="375.001" y2="-2" transform="matrix(0.999996 0.00266099 -0.00860292 0.999963 28 908.001)" stroke="#BBBBBB" stroke-width="4"/>
<line y1="-2" x2="375.001" y2="-2" transform="matrix(0.999996 0.00266099 -0.00860292 0.999963 28 700)" stroke="#BBBBBB" stroke-width="4"/>
<line y1="-2" x2="375.001" y2="-2" transform="matrix(0.999996 0.00266099 -0.00860292 0.999963 28 817.001)" stroke="#BBBBBB" stroke-width="4"/>
<line y1="-2" x2="375.001" y2="-2" transform="matrix(0.999996 0.00266099 -0.00860292 0.999963 28 739)" stroke="#BBBBBB" stroke-width="4"/>
<line y1="-2" x2="375.001" y2="-2" transform="matrix(0.999996 0.00266099 -0.00860292 0.999963 28 856.001)" stroke="#BBBBBB" stroke-width="4"/>
<line y1="-2" x2="375.001" y2="-2" transform="matrix(0.999996 0.00266099 -0.00860292 0.999963 28 778)" stroke="#BBBBBB" stroke-width="4"/>
<line y1="-2" x2="375.001" y2="-2" transform="matrix(0.999996 0.00266099 -0.00860292 0.999963 28 895.001)" stroke="#BBBBBB" stroke-width="4"/>
<line y1="-2" x2="375.001" y2="-2" transform="matrix(0.999996 0.00266099 -0.00860292 0.999963 28 201)" stroke="#BBBBBB" stroke-width="4"/>
<line y1="-2" x2="375.001" y2="-2" transform="matrix(0.999996 0.00266099 -0.00860292 0.999963 28 318.001)" stroke="#BBBBBB" stroke-width="4"/>
<line y1="-2" x2="375.001" y2="-2" transform="matrix(0.999996 0.00266099 -0.00860292 0.999963 28 240)" stroke="#BBBBBB" stroke-width="4"/>
<line y1="-2" x2="375.001" y2="-2" transform="matrix(0.999996 0.00266099 -0.00860292 0.999963 28 357.001)" stroke="#BBBBBB" stroke-width="4"/>
<line y1="-2" x2="375.001" y2="-2" transform="matrix(0.999996 0.00266099 -0.00860292 0.999963 28 279)" stroke="#BBBBBB" stroke-width="4"/>
<line y1="-2" x2="375.001" y2="-2" transform="matrix(0.999996 0.00266099 -0.00860292 0.999963 28 396.001)" stroke="#BBBBBB" stroke-width="4"/>
<line y1="-2" x2="375.001" y2="-2" transform="matrix(0.999996 0.00266099 -0.00860292 0.999963 28 227)" stroke="#BBBBBB" stroke-width="4"/>
<line y1="-2" x2="375.001" y2="-2" transform="matrix(0.999996 0.00266099 -0.00860292 0.999963 28 344.001)" stroke="#BBBBBB" stroke-width="4"/>
<line y1="-2" x2="375.001" y2="-2" transform="matrix(0.999996 0.00266099 -0.00860292 0.999963 28 266)" stroke="#BBBBBB" stroke-width="4"/>
<line y1="-2" x2="375.001" y2="-2" transform="matrix(0.999996 0.00266099 -0.00860292 0.999963 28 383.001)" stroke="#BBBBBB" stroke-width="4"/>
<line y1="-2" x2="375.001" y2="-2" transform="matrix(0.999996 0.00266099 -0.00860292 0.999963 28 305)" stroke="#BBBBBB" stroke-width="4"/>
<line y1="-2" x2="375.001" y2="-2" transform="matrix(0.999996 0.00266099 -0.00860292 0.999963 28 422.001)" stroke="#BBBBBB" stroke-width="4"/>
<line y1="-2" x2="375.001" y2="-2" transform="matrix(0.999996 0.00266099 -0.00860292 0.999963 28 214)" stroke="#BBBBBB" stroke-width="4"/>
<line y1="-2" x2="375.001" y2="-2" transform="matrix(0.999996 0.00266099 -0.00860292 0.999963 28 331.001)" stroke="#BBBBBB" stroke-width="4"/>
<line y1="-2" x2="375.001" y2="-2" transform="matrix(0.999996 0.00266099 -0.00860292 0.999963 28 253)" stroke="#BBBBBB" stroke-width="4"/>
<line y1="-2" x2="375.001" y2="-2" transform="matrix(0.999996 0.00266099 -0.00860292 0.999963 28 370.001)" stroke="#BBBBBB" stroke-width="4"/>
<line y1="-2" x2="375.001" y2="-2" transform="matrix(0.999996 0.00266099 -0.00860292 0.999963 28 292)" stroke="#BBBBBB" stroke-width="4"/>
<line y1="-2" x2="375.001" y2="-2" transform="matrix(0.999996 0.00266099 -0.00860292 0.999963 28 409.001)" stroke="#BBBBBB" stroke-width="4"/>
<rect x="17" y="37" width="397" height="119" rx="14" fill="#1A1A1A" fill-opacity="0.21"/>
<rect x="17" y="449" width="397" height="189" rx="14" fill="#1A1A1A" fill-opacity="0.21"/>
<line x1="76.9988" y1="130.75" x2="561.009" y2="130.75" stroke="#F1B729" stroke-width="4"/>
<line x1="269.008" y1="68" x2="526.008" y2="69.0079" stroke="#F1B729" stroke-width="4"/>
<line x1="281.992" y1="655.5" x2="575.008" y2="655.5" stroke="#F1B729" stroke-width="4"/>
<line x1="263.005" y1="551" x2="669.005" y2="552.033" stroke="#F1B729" stroke-width="4"/>
<line x1="247.005" y1="344" x2="653.005" y2="345.033" stroke="#F1B729" stroke-width="4"/>
<line x1="247.005" y1="802" x2="653.005" y2="803.033" stroke="#F1B729" stroke-width="4"/>
<path d="M454.239 45H451.068C450.881 44.0881 450.553 43.2869 450.084 42.5966C449.624 41.9062 449.061 41.3267 448.396 40.858C447.74 40.3807 447.011 40.0227 446.21 39.7841C445.409 39.5455 444.574 39.4261 443.705 39.4261C442.119 39.4261 440.683 39.8267 439.396 40.6278C438.118 41.429 437.099 42.6094 436.341 44.169C435.591 45.7287 435.216 47.642 435.216 49.9091C435.216 52.1761 435.591 54.0895 436.341 55.6491C437.099 57.2088 438.118 58.3892 439.396 59.1903C440.683 59.9915 442.119 60.392 443.705 60.392C444.574 60.392 445.409 60.2727 446.21 60.0341C447.011 59.7955 447.74 59.4418 448.396 58.973C449.061 58.4957 449.624 57.9119 450.084 57.2216C450.553 56.5227 450.881 55.7216 451.068 54.8182H454.239C454 56.1562 453.565 57.3537 452.935 58.4105C452.304 59.4673 451.52 60.3665 450.582 61.108C449.645 61.8409 448.592 62.3991 447.425 62.7827C446.266 63.1662 445.026 63.358 443.705 63.358C441.472 63.358 439.486 62.8125 437.747 61.7216C436.009 60.6307 434.641 59.0795 433.643 57.0682C432.646 55.0568 432.148 52.6705 432.148 49.9091C432.148 47.1477 432.646 44.7614 433.643 42.75C434.641 40.7386 436.009 39.1875 437.747 38.0966C439.486 37.0057 441.472 36.4602 443.705 36.4602C445.026 36.4602 446.266 36.652 447.425 37.0355C448.592 37.419 449.645 37.9815 450.582 38.723C451.52 39.456 452.304 40.3509 452.935 41.4077C453.565 42.456 454 43.6534 454.239 45ZM460.436 63H457.112L466.725 36.8182H469.998L479.612 63H476.288L468.464 40.9602H468.26L460.436 63ZM461.663 52.7727H475.061V55.5852H461.663V52.7727ZM483.69 63V36.8182H492.537C494.591 36.8182 496.27 37.1889 497.574 37.9304C498.886 38.6634 499.858 39.6562 500.488 40.9091C501.119 42.1619 501.434 43.5597 501.434 45.1023C501.434 46.6449 501.119 48.0469 500.488 49.3082C499.866 50.5696 498.903 51.5753 497.599 52.3253C496.295 53.0668 494.625 53.4375 492.588 53.4375H486.247V50.625H492.485C493.892 50.625 495.021 50.3821 495.873 49.8963C496.725 49.4105 497.343 48.7543 497.727 47.9276C498.119 47.0923 498.315 46.1506 498.315 45.1023C498.315 44.054 498.119 43.1165 497.727 42.2898C497.343 41.4631 496.721 40.8153 495.86 40.3466C495 39.8693 493.858 39.6307 492.434 39.6307H486.86V63H483.69ZM504.944 63H501.62L511.233 36.8182H514.506L524.12 63H520.796L512.972 40.9602H512.767L504.944 63ZM506.171 52.7727H519.569V55.5852H506.171V52.7727Z" fill="#1E1E1E"/>
<path d="M432.739 99.6307V96.8182H452.375V99.6307H444.142V123H440.972V99.6307H432.739ZM460.439 96.8182V123H457.268V96.8182H460.439ZM465.364 99.6307V96.8182H485V99.6307H476.767V123H473.597V99.6307H465.364ZM507.075 96.8182H510.245V114.153C510.245 115.943 509.824 117.541 508.98 118.947C508.145 120.345 506.964 121.449 505.439 122.259C503.913 123.06 502.123 123.46 500.069 123.46C498.015 123.46 496.225 123.06 494.7 122.259C493.174 121.449 491.99 120.345 491.146 118.947C490.311 117.541 489.893 115.943 489.893 114.153V96.8182H493.064V113.898C493.064 115.176 493.345 116.314 493.907 117.311C494.47 118.3 495.271 119.08 496.311 119.651C497.359 120.213 498.612 120.494 500.069 120.494C501.527 120.494 502.779 120.213 503.828 119.651C504.876 119.08 505.677 118.3 506.231 117.311C506.794 116.314 507.075 115.176 507.075 113.898V96.8182ZM516.577 123V96.8182H519.747V120.188H531.918V123H516.577ZM557.898 109.909C557.898 112.67 557.4 115.057 556.402 117.068C555.405 119.08 554.037 120.631 552.299 121.722C550.56 122.812 548.574 123.358 546.341 123.358C544.108 123.358 542.123 122.812 540.384 121.722C538.645 120.631 537.277 119.08 536.28 117.068C535.283 115.057 534.784 112.67 534.784 109.909C534.784 107.148 535.283 104.761 536.28 102.75C537.277 100.739 538.645 99.1875 540.384 98.0966C542.123 97.0057 544.108 96.4602 546.341 96.4602C548.574 96.4602 550.56 97.0057 552.299 98.0966C554.037 99.1875 555.405 100.739 556.402 102.75C557.4 104.761 557.898 107.148 557.898 109.909ZM554.83 109.909C554.83 107.642 554.451 105.729 553.692 104.169C552.942 102.609 551.924 101.429 550.637 100.628C549.358 99.8267 547.926 99.4261 546.341 99.4261C544.756 99.4261 543.32 99.8267 542.033 100.628C540.755 101.429 539.736 102.609 538.978 104.169C538.228 105.729 537.853 107.642 537.853 109.909C537.853 112.176 538.228 114.089 538.978 115.649C539.736 117.209 540.755 118.389 542.033 119.19C543.32 119.991 544.756 120.392 546.341 120.392C547.926 120.392 549.358 119.991 550.637 119.19C551.924 118.389 552.942 117.209 553.692 115.649C554.451 114.089 554.83 112.176 554.83 109.909Z" fill="#1E1E1E"/>
<path d="M431.409 650V638.364H432.818V648.75H438.227V650H431.409ZM443.886 650.182C443.045 650.182 442.32 649.996 441.71 649.625C441.104 649.25 440.636 648.727 440.307 648.057C439.981 647.383 439.818 646.598 439.818 645.705C439.818 644.811 439.981 644.023 440.307 643.341C440.636 642.655 441.095 642.121 441.682 641.739C442.273 641.352 442.962 641.159 443.75 641.159C444.205 641.159 444.653 641.235 445.097 641.386C445.54 641.538 445.943 641.784 446.307 642.125C446.67 642.462 446.96 642.909 447.176 643.466C447.392 644.023 447.5 644.708 447.5 645.523V646.091H440.773V644.932H446.136C446.136 644.439 446.038 644 445.841 643.614C445.648 643.227 445.371 642.922 445.011 642.699C444.655 642.475 444.235 642.364 443.75 642.364C443.216 642.364 442.754 642.496 442.364 642.761C441.977 643.023 441.68 643.364 441.472 643.784C441.263 644.205 441.159 644.655 441.159 645.136V645.909C441.159 646.568 441.273 647.127 441.5 647.585C441.731 648.04 442.051 648.386 442.46 648.625C442.869 648.86 443.345 648.977 443.886 648.977C444.239 648.977 444.557 648.928 444.841 648.83C445.129 648.727 445.377 648.576 445.585 648.375C445.794 648.17 445.955 647.917 446.068 647.614L447.364 647.977C447.227 648.417 446.998 648.803 446.676 649.136C446.354 649.466 445.956 649.723 445.483 649.909C445.009 650.091 444.477 650.182 443.886 650.182ZM453.062 653.455C452.415 653.455 451.858 653.371 451.392 653.205C450.926 653.042 450.538 652.826 450.227 652.557C449.92 652.292 449.676 652.008 449.494 651.705L450.562 650.955C450.684 651.114 450.837 651.295 451.023 651.5C451.208 651.708 451.462 651.888 451.784 652.04C452.11 652.195 452.536 652.273 453.062 652.273C453.767 652.273 454.348 652.102 454.807 651.761C455.265 651.42 455.494 650.886 455.494 650.159V648.386H455.381C455.282 648.545 455.142 648.742 454.96 648.977C454.782 649.208 454.525 649.415 454.188 649.597C453.854 649.775 453.403 649.864 452.835 649.864C452.131 649.864 451.498 649.697 450.938 649.364C450.381 649.03 449.939 648.545 449.614 647.909C449.292 647.273 449.131 646.5 449.131 645.591C449.131 644.697 449.288 643.919 449.602 643.256C449.917 642.589 450.354 642.074 450.915 641.71C451.475 641.343 452.123 641.159 452.858 641.159C453.426 641.159 453.877 641.254 454.21 641.443C454.547 641.629 454.805 641.841 454.983 642.08C455.165 642.314 455.305 642.508 455.403 642.659H455.54V641.273H456.835V650.25C456.835 651 456.665 651.61 456.324 652.08C455.987 652.553 455.532 652.9 454.96 653.119C454.392 653.343 453.759 653.455 453.062 653.455ZM453.017 648.659C453.555 648.659 454.009 648.536 454.381 648.29C454.752 648.044 455.034 647.689 455.227 647.227C455.42 646.765 455.517 646.212 455.517 645.568C455.517 644.939 455.422 644.384 455.233 643.903C455.044 643.422 454.763 643.045 454.392 642.773C454.021 642.5 453.563 642.364 453.017 642.364C452.449 642.364 451.975 642.508 451.597 642.795C451.222 643.083 450.939 643.47 450.75 643.955C450.564 644.439 450.472 644.977 450.472 645.568C450.472 646.174 450.566 646.71 450.756 647.176C450.949 647.638 451.233 648.002 451.608 648.267C451.987 648.528 452.456 648.659 453.017 648.659ZM462.949 650.182C462.108 650.182 461.383 649.996 460.773 649.625C460.167 649.25 459.699 648.727 459.369 648.057C459.044 647.383 458.881 646.598 458.881 645.705C458.881 644.811 459.044 644.023 459.369 643.341C459.699 642.655 460.157 642.121 460.744 641.739C461.335 641.352 462.025 641.159 462.812 641.159C463.267 641.159 463.716 641.235 464.159 641.386C464.602 641.538 465.006 641.784 465.369 642.125C465.733 642.462 466.023 642.909 466.239 643.466C466.455 644.023 466.562 644.708 466.562 645.523V646.091H459.835V644.932H465.199C465.199 644.439 465.1 644 464.903 643.614C464.71 643.227 464.434 642.922 464.074 642.699C463.718 642.475 463.297 642.364 462.812 642.364C462.278 642.364 461.816 642.496 461.426 642.761C461.04 643.023 460.742 643.364 460.534 643.784C460.326 644.205 460.222 644.655 460.222 645.136V645.909C460.222 646.568 460.335 647.127 460.562 647.585C460.794 648.04 461.114 648.386 461.523 648.625C461.932 648.86 462.407 648.977 462.949 648.977C463.301 648.977 463.619 648.928 463.903 648.83C464.191 648.727 464.439 648.576 464.648 648.375C464.856 648.17 465.017 647.917 465.131 647.614L466.426 647.977C466.29 648.417 466.061 648.803 465.739 649.136C465.417 649.466 465.019 649.723 464.545 649.909C464.072 650.091 463.54 650.182 462.949 650.182ZM469.943 644.75V650H468.602V641.273H469.898V642.636H470.011C470.216 642.193 470.527 641.837 470.943 641.568C471.36 641.295 471.898 641.159 472.557 641.159C473.148 641.159 473.665 641.28 474.108 641.523C474.551 641.761 474.896 642.125 475.142 642.614C475.388 643.098 475.511 643.712 475.511 644.455V650H474.17V644.545C474.17 643.86 473.992 643.326 473.636 642.943C473.28 642.557 472.792 642.364 472.17 642.364C471.742 642.364 471.36 642.456 471.023 642.642C470.689 642.828 470.426 643.098 470.233 643.455C470.04 643.811 469.943 644.242 469.943 644.75ZM481.257 650.182C480.53 650.182 479.888 649.998 479.331 649.631C478.774 649.259 478.339 648.737 478.024 648.062C477.71 647.384 477.553 646.583 477.553 645.659C477.553 644.742 477.71 643.947 478.024 643.273C478.339 642.598 478.776 642.078 479.337 641.71C479.897 641.343 480.545 641.159 481.28 641.159C481.848 641.159 482.297 641.254 482.626 641.443C482.96 641.629 483.214 641.841 483.388 642.08C483.566 642.314 483.704 642.508 483.803 642.659H483.916V638.364H485.257V650H483.962V648.659H483.803C483.704 648.818 483.564 649.019 483.382 649.261C483.2 649.5 482.941 649.714 482.604 649.903C482.267 650.089 481.818 650.182 481.257 650.182ZM481.439 648.977C481.977 648.977 482.431 648.837 482.803 648.557C483.174 648.273 483.456 647.881 483.649 647.381C483.842 646.877 483.939 646.295 483.939 645.636C483.939 644.985 483.844 644.415 483.655 643.926C483.465 643.434 483.185 643.051 482.814 642.778C482.443 642.502 481.984 642.364 481.439 642.364C480.871 642.364 480.397 642.509 480.018 642.801C479.643 643.089 479.361 643.481 479.172 643.977C478.986 644.47 478.893 645.023 478.893 645.636C478.893 646.258 478.988 646.822 479.178 647.33C479.371 647.833 479.655 648.235 480.03 648.534C480.409 648.83 480.878 648.977 481.439 648.977ZM490.467 650.205C489.914 650.205 489.412 650.1 488.962 649.892C488.511 649.68 488.153 649.375 487.888 648.977C487.623 648.576 487.49 648.091 487.49 647.523C487.49 647.023 487.589 646.617 487.786 646.307C487.982 645.992 488.246 645.746 488.575 645.568C488.905 645.39 489.268 645.258 489.666 645.17C490.068 645.08 490.471 645.008 490.876 644.955C491.407 644.886 491.837 644.835 492.166 644.801C492.5 644.763 492.742 644.701 492.893 644.614C493.049 644.527 493.126 644.375 493.126 644.159V644.114C493.126 643.553 492.973 643.117 492.666 642.807C492.363 642.496 491.903 642.341 491.286 642.341C490.645 642.341 490.143 642.481 489.78 642.761C489.416 643.042 489.161 643.341 489.013 643.659L487.74 643.205C487.967 642.674 488.27 642.261 488.649 641.966C489.032 641.667 489.448 641.458 489.899 641.341C490.354 641.22 490.801 641.159 491.24 641.159C491.52 641.159 491.842 641.193 492.206 641.261C492.573 641.326 492.928 641.46 493.268 641.665C493.613 641.869 493.899 642.178 494.126 642.591C494.354 643.004 494.467 643.557 494.467 644.25V650H493.126V648.818H493.058C492.967 649.008 492.816 649.21 492.604 649.426C492.392 649.642 492.109 649.826 491.757 649.977C491.405 650.129 490.975 650.205 490.467 650.205ZM490.672 649C491.202 649 491.649 648.896 492.013 648.688C492.38 648.479 492.657 648.21 492.842 647.881C493.032 647.551 493.126 647.205 493.126 646.841V645.614C493.07 645.682 492.945 645.744 492.751 645.801C492.562 645.854 492.342 645.902 492.092 645.943C491.846 645.981 491.606 646.015 491.371 646.045C491.14 646.072 490.952 646.095 490.808 646.114C490.46 646.159 490.134 646.233 489.831 646.335C489.532 646.434 489.289 646.583 489.104 646.784C488.922 646.981 488.831 647.25 488.831 647.591C488.831 648.057 489.003 648.409 489.348 648.648C489.696 648.883 490.138 649 490.672 649ZM510.96 642H509.551C509.468 641.595 509.322 641.239 509.114 640.932C508.909 640.625 508.659 640.367 508.364 640.159C508.072 639.947 507.748 639.788 507.392 639.682C507.036 639.576 506.665 639.523 506.278 639.523C505.574 639.523 504.936 639.701 504.364 640.057C503.795 640.413 503.343 640.938 503.006 641.631C502.672 642.324 502.506 643.174 502.506 644.182C502.506 645.189 502.672 646.04 503.006 646.733C503.343 647.426 503.795 647.951 504.364 648.307C504.936 648.663 505.574 648.841 506.278 648.841C506.665 648.841 507.036 648.788 507.392 648.682C507.748 648.576 508.072 648.419 508.364 648.21C508.659 647.998 508.909 647.739 509.114 647.432C509.322 647.121 509.468 646.765 509.551 646.364H510.96C510.854 646.958 510.661 647.491 510.381 647.96C510.1 648.43 509.752 648.83 509.335 649.159C508.919 649.485 508.451 649.733 507.932 649.903C507.417 650.074 506.866 650.159 506.278 650.159C505.286 650.159 504.403 649.917 503.631 649.432C502.858 648.947 502.25 648.258 501.807 647.364C501.364 646.47 501.142 645.409 501.142 644.182C501.142 642.955 501.364 641.894 501.807 641C502.25 640.106 502.858 639.417 503.631 638.932C504.403 638.447 505.286 638.205 506.278 638.205C506.866 638.205 507.417 638.29 507.932 638.46C508.451 638.631 508.919 638.881 509.335 639.21C509.752 639.536 510.1 639.934 510.381 640.403C510.661 640.869 510.854 641.402 510.96 642ZM516.601 650.182C515.813 650.182 515.122 649.994 514.527 649.619C513.936 649.244 513.474 648.72 513.141 648.045C512.811 647.371 512.646 646.583 512.646 645.682C512.646 644.773 512.811 643.979 513.141 643.301C513.474 642.623 513.936 642.097 514.527 641.722C515.122 641.347 515.813 641.159 516.601 641.159C517.389 641.159 518.078 641.347 518.669 641.722C519.264 642.097 519.726 642.623 520.055 643.301C520.389 643.979 520.555 644.773 520.555 645.682C520.555 646.583 520.389 647.371 520.055 648.045C519.726 648.72 519.264 649.244 518.669 649.619C518.078 649.994 517.389 650.182 516.601 650.182ZM516.601 648.977C517.199 648.977 517.692 648.824 518.078 648.517C518.464 648.21 518.75 647.807 518.936 647.307C519.122 646.807 519.214 646.265 519.214 645.682C519.214 645.098 519.122 644.555 518.936 644.051C518.75 643.547 518.464 643.14 518.078 642.83C517.692 642.519 517.199 642.364 516.601 642.364C516.002 642.364 515.51 642.519 515.124 642.83C514.737 643.14 514.451 643.547 514.266 644.051C514.08 644.555 513.987 645.098 513.987 645.682C513.987 646.265 514.08 646.807 514.266 647.307C514.451 647.807 514.737 648.21 515.124 648.517C515.51 648.824 516.002 648.977 516.601 648.977ZM523.943 644.75V650H522.602V641.273H523.898V642.636H524.011C524.216 642.193 524.527 641.837 524.943 641.568C525.36 641.295 525.898 641.159 526.557 641.159C527.148 641.159 527.665 641.28 528.108 641.523C528.551 641.761 528.896 642.125 529.142 642.614C529.388 643.098 529.511 643.712 529.511 644.455V650H528.17V644.545C528.17 643.86 527.992 643.326 527.636 642.943C527.28 642.557 526.792 642.364 526.17 642.364C525.742 642.364 525.36 642.456 525.023 642.642C524.689 642.828 524.426 643.098 524.233 643.455C524.04 643.811 523.943 644.242 523.943 644.75ZM535.757 641.273V642.409H531.234V641.273H535.757ZM532.553 639.182H533.893V647.5C533.893 647.879 533.948 648.163 534.058 648.352C534.172 648.538 534.316 648.663 534.49 648.727C534.668 648.788 534.856 648.818 535.053 648.818C535.2 648.818 535.321 648.811 535.416 648.795C535.511 648.777 535.587 648.761 535.643 648.75L535.916 649.955C535.825 649.989 535.698 650.023 535.536 650.057C535.373 650.095 535.166 650.114 534.916 650.114C534.537 650.114 534.166 650.032 533.803 649.869C533.443 649.706 533.143 649.458 532.905 649.125C532.67 648.792 532.553 648.371 532.553 647.864V639.182ZM541.339 650.182C540.499 650.182 539.773 649.996 539.163 649.625C538.557 649.25 538.089 648.727 537.76 648.057C537.434 647.383 537.271 646.598 537.271 645.705C537.271 644.811 537.434 644.023 537.76 643.341C538.089 642.655 538.548 642.121 539.135 641.739C539.726 641.352 540.415 641.159 541.203 641.159C541.658 641.159 542.107 641.235 542.55 641.386C542.993 641.538 543.396 641.784 543.76 642.125C544.124 642.462 544.413 642.909 544.629 643.466C544.845 644.023 544.953 644.708 544.953 645.523V646.091H538.226V644.932H543.589C543.589 644.439 543.491 644 543.294 643.614C543.101 643.227 542.824 642.922 542.464 642.699C542.108 642.475 541.688 642.364 541.203 642.364C540.669 642.364 540.207 642.496 539.817 642.761C539.43 643.023 539.133 643.364 538.925 643.784C538.716 644.205 538.612 644.655 538.612 645.136V645.909C538.612 646.568 538.726 647.127 538.953 647.585C539.184 648.04 539.504 648.386 539.913 648.625C540.322 648.86 540.798 648.977 541.339 648.977C541.692 648.977 542.01 648.928 542.294 648.83C542.582 648.727 542.83 648.576 543.038 648.375C543.247 648.17 543.408 647.917 543.521 647.614L544.817 647.977C544.68 648.417 544.451 648.803 544.129 649.136C543.807 649.466 543.41 649.723 542.936 649.909C542.463 650.091 541.93 650.182 541.339 650.182ZM552.493 646.432V641.273H553.834V650H552.493V648.523H552.402C552.197 648.966 551.879 649.343 551.447 649.653C551.016 649.96 550.47 650.114 549.811 650.114C549.266 650.114 548.781 649.994 548.357 649.756C547.932 649.513 547.599 649.15 547.357 648.665C547.114 648.176 546.993 647.561 546.993 646.818V641.273H548.334V646.727C548.334 647.364 548.512 647.871 548.868 648.25C549.228 648.629 549.686 648.818 550.243 648.818C550.576 648.818 550.915 648.733 551.26 648.562C551.608 648.392 551.9 648.131 552.135 647.778C552.374 647.426 552.493 646.977 552.493 646.432ZM549.811 640.091L551.197 637.455H552.766L550.993 640.091H549.811ZM559.585 650.182C558.858 650.182 558.216 649.998 557.659 649.631C557.102 649.259 556.667 648.737 556.352 648.062C556.038 647.384 555.881 646.583 555.881 645.659C555.881 644.742 556.038 643.947 556.352 643.273C556.667 642.598 557.104 642.078 557.665 641.71C558.225 641.343 558.873 641.159 559.608 641.159C560.176 641.159 560.625 641.254 560.955 641.443C561.288 641.629 561.542 641.841 561.716 642.08C561.894 642.314 562.032 642.508 562.131 642.659H562.244V638.364H563.585V650H562.29V648.659H562.131C562.032 648.818 561.892 649.019 561.71 649.261C561.528 649.5 561.269 649.714 560.932 649.903C560.595 650.089 560.146 650.182 559.585 650.182ZM559.767 648.977C560.305 648.977 560.759 648.837 561.131 648.557C561.502 648.273 561.784 647.881 561.977 647.381C562.17 646.877 562.267 646.295 562.267 645.636C562.267 644.985 562.172 644.415 561.983 643.926C561.794 643.434 561.513 643.051 561.142 642.778C560.771 642.502 560.313 642.364 559.767 642.364C559.199 642.364 558.725 642.509 558.347 642.801C557.972 643.089 557.689 643.481 557.5 643.977C557.314 644.47 557.222 645.023 557.222 645.636C557.222 646.258 557.316 646.822 557.506 647.33C557.699 647.833 557.983 648.235 558.358 648.534C558.737 648.83 559.206 648.977 559.767 648.977ZM569.773 650.182C568.985 650.182 568.294 649.994 567.699 649.619C567.108 649.244 566.646 648.72 566.312 648.045C565.983 647.371 565.818 646.583 565.818 645.682C565.818 644.773 565.983 643.979 566.312 643.301C566.646 642.623 567.108 642.097 567.699 641.722C568.294 641.347 568.985 641.159 569.773 641.159C570.561 641.159 571.25 641.347 571.841 641.722C572.436 642.097 572.898 642.623 573.227 643.301C573.561 643.979 573.727 644.773 573.727 645.682C573.727 646.583 573.561 647.371 573.227 648.045C572.898 648.72 572.436 649.244 571.841 649.619C571.25 649.994 570.561 650.182 569.773 650.182ZM569.773 648.977C570.371 648.977 570.864 648.824 571.25 648.517C571.636 648.21 571.922 647.807 572.108 647.307C572.294 646.807 572.386 646.265 572.386 645.682C572.386 645.098 572.294 644.555 572.108 644.051C571.922 643.547 571.636 643.14 571.25 642.83C570.864 642.519 570.371 642.364 569.773 642.364C569.174 642.364 568.682 642.519 568.295 642.83C567.909 643.14 567.623 643.547 567.438 644.051C567.252 644.555 567.159 645.098 567.159 645.682C567.159 646.265 567.252 646.807 567.438 647.307C567.623 647.807 567.909 648.21 568.295 648.517C568.682 648.824 569.174 648.977 569.773 648.977Z" fill="#1E1E1E"/>
<path d="M454.239 526H451.068C450.881 525.088 450.553 524.287 450.084 523.597C449.624 522.906 449.061 522.327 448.396 521.858C447.74 521.381 447.011 521.023 446.21 520.784C445.409 520.545 444.574 520.426 443.705 520.426C442.119 520.426 440.683 520.827 439.396 521.628C438.118 522.429 437.099 523.609 436.341 525.169C435.591 526.729 435.216 528.642 435.216 530.909C435.216 533.176 435.591 535.089 436.341 536.649C437.099 538.209 438.118 539.389 439.396 540.19C440.683 540.991 442.119 541.392 443.705 541.392C444.574 541.392 445.409 541.273 446.21 541.034C447.011 540.795 447.74 540.442 448.396 539.973C449.061 539.496 449.624 538.912 450.084 538.222C450.553 537.523 450.881 536.722 451.068 535.818H454.239C454 537.156 453.565 538.354 452.935 539.411C452.304 540.467 451.52 541.366 450.582 542.108C449.645 542.841 448.592 543.399 447.425 543.783C446.266 544.166 445.026 544.358 443.705 544.358C441.472 544.358 439.486 543.812 437.747 542.722C436.009 541.631 434.641 540.08 433.643 538.068C432.646 536.057 432.148 533.67 432.148 530.909C432.148 528.148 432.646 525.761 433.643 523.75C434.641 521.739 436.009 520.188 437.747 519.097C439.486 518.006 441.472 517.46 443.705 517.46C445.026 517.46 446.266 517.652 447.425 518.036C448.592 518.419 449.645 518.982 450.582 519.723C451.52 520.456 452.304 521.351 452.935 522.408C453.565 523.456 454 524.653 454.239 526ZM481.453 530.909C481.453 533.67 480.954 536.057 479.957 538.068C478.96 540.08 477.592 541.631 475.853 542.722C474.115 543.812 472.129 544.358 469.896 544.358C467.663 544.358 465.677 543.812 463.939 542.722C462.2 541.631 460.832 540.08 459.835 538.068C458.838 536.057 458.339 533.67 458.339 530.909C458.339 528.148 458.838 525.761 459.835 523.75C460.832 521.739 462.2 520.188 463.939 519.097C465.677 518.006 467.663 517.46 469.896 517.46C472.129 517.46 474.115 518.006 475.853 519.097C477.592 520.188 478.96 521.739 479.957 523.75C480.954 525.761 481.453 528.148 481.453 530.909ZM478.385 530.909C478.385 528.642 478.005 526.729 477.247 525.169C476.497 523.609 475.478 522.429 474.191 521.628C472.913 520.827 471.481 520.426 469.896 520.426C468.311 520.426 466.875 520.827 465.588 521.628C464.309 522.429 463.291 523.609 462.532 525.169C461.782 526.729 461.407 528.642 461.407 530.909C461.407 533.176 461.782 535.089 462.532 536.649C463.291 538.209 464.309 539.389 465.588 540.19C466.875 540.991 468.311 541.392 469.896 541.392C471.481 541.392 472.913 540.991 474.191 540.19C475.478 539.389 476.497 538.209 477.247 536.649C478.005 535.089 478.385 533.176 478.385 530.909ZM507.545 517.818V544H504.477L490.21 523.443H489.954V544H486.784V517.818H489.852L504.17 538.426H504.426V517.818H507.545ZM512.457 520.631V517.818H532.094V520.631H523.861V544H520.69V520.631H512.457ZM536.987 544V517.818H552.788V520.631H540.157V529.477H551.97V532.29H540.157V541.188H552.993V544H536.987ZM575.684 517.818H578.855V535.153C578.855 536.943 578.433 538.541 577.589 539.947C576.754 541.345 575.574 542.449 574.048 543.259C572.522 544.06 570.733 544.46 568.679 544.46C566.625 544.46 564.835 544.06 563.309 543.259C561.784 542.449 560.599 541.345 559.755 539.947C558.92 538.541 558.502 536.943 558.502 535.153V517.818H561.673V534.898C561.673 536.176 561.954 537.314 562.517 538.311C563.079 539.3 563.88 540.08 564.92 540.651C565.968 541.213 567.221 541.494 568.679 541.494C570.136 541.494 571.389 541.213 572.437 540.651C573.485 540.08 574.287 539.3 574.841 538.311C575.403 537.314 575.684 536.176 575.684 534.898V517.818ZM567.298 515.159L570.417 509.227H573.946L569.957 515.159H567.298ZM593.266 544H585.186V517.818H593.624C596.163 517.818 598.337 518.342 600.143 519.391C601.95 520.43 603.335 521.926 604.298 523.878C605.261 525.821 605.743 528.148 605.743 530.858C605.743 533.585 605.257 535.933 604.286 537.902C603.314 539.862 601.899 541.371 600.041 542.428C598.183 543.476 595.925 544 593.266 544ZM588.357 541.188H593.061C595.226 541.188 597.02 540.77 598.443 539.935C599.866 539.099 600.928 537.911 601.626 536.368C602.325 534.825 602.675 532.989 602.675 530.858C602.675 528.744 602.33 526.925 601.639 525.399C600.949 523.865 599.918 522.689 598.545 521.871C597.173 521.044 595.464 520.631 593.419 520.631H588.357V541.188ZM633.152 530.909C633.152 533.67 632.653 536.057 631.656 538.068C630.659 540.08 629.291 541.631 627.553 542.722C625.814 543.812 623.828 544.358 621.595 544.358C619.362 544.358 617.376 543.812 615.638 542.722C613.899 541.631 612.531 540.08 611.534 538.068C610.537 536.057 610.038 533.67 610.038 530.909C610.038 528.148 610.537 525.761 611.534 523.75C612.531 521.739 613.899 520.188 615.638 519.097C617.376 518.006 619.362 517.46 621.595 517.46C623.828 517.46 625.814 518.006 627.553 519.097C629.291 520.188 630.659 521.739 631.656 523.75C632.653 525.761 633.152 528.148 633.152 530.909ZM630.084 530.909C630.084 528.642 629.705 526.729 628.946 525.169C628.196 523.609 627.178 522.429 625.891 521.628C624.612 520.827 623.18 520.426 621.595 520.426C620.01 520.426 618.574 520.827 617.287 521.628C616.009 522.429 614.99 523.609 614.232 525.169C613.482 526.729 613.107 528.642 613.107 530.909C613.107 533.176 613.482 535.089 614.232 536.649C614.99 538.209 616.009 539.389 617.287 540.19C618.574 540.991 620.01 541.392 621.595 541.392C623.18 541.392 624.612 540.991 625.891 540.19C627.178 539.389 628.196 538.209 628.946 536.649C629.705 535.089 630.084 533.176 630.084 530.909ZM656.688 544.358C654.761 544.358 653.121 543.834 651.766 542.786C650.411 541.729 649.375 540.199 648.659 538.196C647.943 536.185 647.585 533.756 647.585 530.909C647.585 528.08 647.943 525.663 648.659 523.661C649.384 521.649 650.423 520.115 651.778 519.058C653.142 517.993 654.778 517.46 656.688 517.46C658.597 517.46 660.229 517.993 661.584 519.058C662.947 520.115 663.987 521.649 664.703 523.661C665.428 525.663 665.79 528.08 665.79 530.909C665.79 533.756 665.432 536.185 664.716 538.196C664 540.199 662.964 541.729 661.609 542.786C660.254 543.834 658.614 544.358 656.688 544.358ZM656.688 541.545C658.597 541.545 660.08 540.625 661.136 538.784C662.193 536.943 662.722 534.318 662.722 530.909C662.722 528.642 662.479 526.712 661.993 525.118C661.516 523.524 660.825 522.31 659.922 521.474C659.027 520.639 657.949 520.222 656.688 520.222C654.795 520.222 653.317 521.155 652.251 523.021C651.186 524.879 650.653 527.509 650.653 530.909C650.653 533.176 650.892 535.102 651.369 536.688C651.847 538.273 652.533 539.479 653.428 540.305C654.331 541.132 655.418 541.545 656.688 541.545ZM679.852 517.818V544H676.682V521.142H676.528L670.136 525.386V522.165L676.682 517.818H679.852Z" fill="#1E1E1E"/>
<path d="M417.17 337V310.818H426.017C428.071 310.818 429.75 311.189 431.054 311.93C432.366 312.663 433.338 313.656 433.969 314.909C434.599 316.162 434.915 317.56 434.915 319.102C434.915 320.645 434.599 322.047 433.969 323.308C433.347 324.57 432.384 325.575 431.08 326.325C429.776 327.067 428.105 327.438 426.068 327.438H419.727V324.625H425.966C427.372 324.625 428.501 324.382 429.354 323.896C430.206 323.411 430.824 322.754 431.207 321.928C431.599 321.092 431.795 320.151 431.795 319.102C431.795 318.054 431.599 317.116 431.207 316.29C430.824 315.463 430.202 314.815 429.341 314.347C428.48 313.869 427.338 313.631 425.915 313.631H420.341V337H417.17ZM438.424 337H435.1L444.714 310.818H447.987L457.6 337H454.276L446.452 314.96H446.248L438.424 337ZM439.651 326.773H453.049V329.585H439.651V326.773ZM461.678 337V310.818H470.525C472.57 310.818 474.249 311.168 475.562 311.866C476.874 312.557 477.846 313.507 478.477 314.717C479.107 315.928 479.423 317.304 479.423 318.847C479.423 320.389 479.107 321.757 478.477 322.95C477.846 324.143 476.879 325.081 475.575 325.763C474.271 326.436 472.604 326.773 470.576 326.773H463.417V323.909H470.474C471.871 323.909 472.996 323.705 473.849 323.295C474.71 322.886 475.332 322.307 475.715 321.557C476.107 320.798 476.303 319.895 476.303 318.847C476.303 317.798 476.107 316.882 475.715 316.098C475.323 315.314 474.697 314.709 473.836 314.283C472.975 313.848 471.837 313.631 470.423 313.631H464.849V337H461.678ZM474.002 325.239L480.445 337H476.763L470.423 325.239H474.002ZM485.779 337H482.456L492.069 310.818H495.342L504.956 337H501.632L493.808 314.96H493.603L485.779 337ZM487.007 326.773H500.404V329.585H487.007V326.773ZM492.325 308.159L495.444 302.227H498.973L494.984 308.159H492.325ZM525.701 319C525.42 318.139 525.049 317.368 524.589 316.686C524.137 315.996 523.596 315.408 522.965 314.922C522.343 314.436 521.636 314.065 520.843 313.81C520.05 313.554 519.181 313.426 518.235 313.426C516.684 313.426 515.273 313.827 514.004 314.628C512.734 315.429 511.724 316.609 510.974 318.169C510.224 319.729 509.849 321.642 509.849 323.909C509.849 326.176 510.228 328.089 510.987 329.649C511.745 331.209 512.772 332.389 514.067 333.19C515.363 333.991 516.82 334.392 518.44 334.392C519.94 334.392 521.261 334.072 522.403 333.433C523.553 332.786 524.448 331.874 525.087 330.697C525.735 329.513 526.059 328.119 526.059 326.517L527.031 326.722H519.156V323.909H529.127V326.722C529.127 328.878 528.667 330.753 527.746 332.347C526.835 333.94 525.573 335.176 523.962 336.054C522.36 336.923 520.519 337.358 518.44 337.358C516.121 337.358 514.085 336.812 512.329 335.722C510.582 334.631 509.218 333.08 508.238 331.068C507.266 329.057 506.781 326.67 506.781 323.909C506.781 321.838 507.058 319.976 507.612 318.322C508.174 316.661 508.967 315.246 509.989 314.078C511.012 312.911 512.222 312.016 513.62 311.393C515.018 310.771 516.556 310.46 518.235 310.46C519.616 310.46 520.903 310.669 522.096 311.087C523.298 311.496 524.367 312.08 525.305 312.838C526.251 313.588 527.039 314.487 527.67 315.536C528.3 316.575 528.735 317.73 528.974 319H525.701ZM534.557 337V310.818H543.404C545.449 310.818 547.128 311.168 548.441 311.866C549.753 312.557 550.725 313.507 551.355 314.717C551.986 315.928 552.301 317.304 552.301 318.847C552.301 320.389 551.986 321.757 551.355 322.95C550.725 324.143 549.757 325.081 548.453 325.763C547.15 326.436 545.483 326.773 543.455 326.773H536.296V323.909H543.353C544.75 323.909 545.875 323.705 546.728 323.295C547.588 322.886 548.211 322.307 548.594 321.557C548.986 320.798 549.182 319.895 549.182 318.847C549.182 317.798 548.986 316.882 548.594 316.098C548.202 315.314 547.576 314.709 546.715 314.283C545.854 313.848 544.716 313.631 543.301 313.631H537.728V337H534.557ZM546.881 325.239L553.324 337H549.642L543.301 325.239H546.881ZM558.658 337H555.335L564.948 310.818H568.221L577.835 337H574.511L566.687 314.96H566.482L558.658 337ZM559.886 326.773H573.283V329.585H559.886V326.773ZM581.913 337V310.818H597.612V313.631H585.083V322.477H596.435V325.29H585.083V337H581.913ZM625.132 323.909C625.132 326.67 624.634 329.057 623.637 331.068C622.64 333.08 621.272 334.631 619.533 335.722C617.794 336.812 615.809 337.358 613.576 337.358C611.343 337.358 609.357 336.812 607.618 335.722C605.88 334.631 604.512 333.08 603.515 331.068C602.517 329.057 602.019 326.67 602.019 323.909C602.019 321.148 602.517 318.761 603.515 316.75C604.512 314.739 605.88 313.188 607.618 312.097C609.357 311.006 611.343 310.46 613.576 310.46C615.809 310.46 617.794 311.006 619.533 312.097C621.272 313.188 622.64 314.739 623.637 316.75C624.634 318.761 625.132 321.148 625.132 323.909ZM622.064 323.909C622.064 321.642 621.685 319.729 620.926 318.169C620.176 316.609 619.158 315.429 617.871 314.628C616.593 313.827 615.161 313.426 613.576 313.426C611.99 313.426 610.554 313.827 609.267 314.628C607.989 315.429 606.971 316.609 606.212 318.169C605.462 319.729 605.087 321.642 605.087 323.909C605.087 326.176 605.462 328.089 606.212 329.649C606.971 331.209 607.989 332.389 609.267 333.19C610.554 333.991 611.99 334.392 613.576 334.392C615.161 334.392 616.593 333.991 617.871 333.19C619.158 332.389 620.176 331.209 620.926 329.649C621.685 328.089 622.064 326.176 622.064 323.909ZM648.668 337.358C646.742 337.358 645.101 336.834 643.746 335.786C642.391 334.729 641.355 333.199 640.64 331.196C639.924 329.185 639.566 326.756 639.566 323.909C639.566 321.08 639.924 318.663 640.64 316.661C641.364 314.649 642.404 313.115 643.759 312.058C645.123 310.993 646.759 310.46 648.668 310.46C650.577 310.46 652.209 310.993 653.564 312.058C654.928 313.115 655.968 314.649 656.684 316.661C657.408 318.663 657.77 321.08 657.77 323.909C657.77 326.756 657.412 329.185 656.696 331.196C655.98 333.199 654.945 334.729 653.59 335.786C652.235 336.834 650.594 337.358 648.668 337.358ZM648.668 334.545C650.577 334.545 652.06 333.625 653.117 331.784C654.174 329.943 654.702 327.318 654.702 323.909C654.702 321.642 654.459 319.712 653.973 318.118C653.496 316.524 652.806 315.31 651.902 314.474C651.007 313.639 649.929 313.222 648.668 313.222C646.776 313.222 645.297 314.155 644.232 316.021C643.167 317.879 642.634 320.509 642.634 323.909C642.634 326.176 642.873 328.102 643.35 329.688C643.827 331.273 644.513 332.479 645.408 333.305C646.311 334.132 647.398 334.545 648.668 334.545ZM671.833 310.818V337H668.662V314.142H668.509L662.117 318.386V315.165L668.662 310.818H671.833Z" fill="#1E1E1E"/>
<path d="M417.17 795V768.818H426.017C428.071 768.818 429.75 769.189 431.054 769.93C432.366 770.663 433.338 771.656 433.969 772.909C434.599 774.162 434.915 775.56 434.915 777.102C434.915 778.645 434.599 780.047 433.969 781.308C433.347 782.57 432.384 783.575 431.08 784.325C429.776 785.067 428.105 785.438 426.068 785.438H419.727V782.625H425.966C427.372 782.625 428.501 782.382 429.354 781.896C430.206 781.411 430.824 780.754 431.207 779.928C431.599 779.092 431.795 778.151 431.795 777.102C431.795 776.054 431.599 775.116 431.207 774.29C430.824 773.463 430.202 772.815 429.341 772.347C428.48 771.869 427.338 771.631 425.915 771.631H420.341V795H417.17ZM438.424 795H435.1L444.714 768.818H447.987L457.6 795H454.276L446.452 772.96H446.248L438.424 795ZM439.651 784.773H453.049V787.585H439.651V784.773ZM461.678 795V768.818H470.525C472.57 768.818 474.249 769.168 475.562 769.866C476.874 770.557 477.846 771.507 478.477 772.717C479.107 773.928 479.423 775.304 479.423 776.847C479.423 778.389 479.107 779.757 478.477 780.95C477.846 782.143 476.879 783.081 475.575 783.763C474.271 784.436 472.604 784.773 470.576 784.773H463.417V781.909H470.474C471.871 781.909 472.996 781.705 473.849 781.295C474.71 780.886 475.332 780.307 475.715 779.557C476.107 778.798 476.303 777.895 476.303 776.847C476.303 775.798 476.107 774.882 475.715 774.098C475.323 773.314 474.697 772.709 473.836 772.283C472.975 771.848 471.837 771.631 470.423 771.631H464.849V795H461.678ZM474.002 783.239L480.445 795H476.763L470.423 783.239H474.002ZM485.779 795H482.456L492.069 768.818H495.342L504.956 795H501.632L493.808 772.96H493.603L485.779 795ZM487.007 784.773H500.404V787.585H487.007V784.773ZM492.325 766.159L495.444 760.227H498.973L494.984 766.159H492.325ZM525.701 777C525.42 776.139 525.049 775.368 524.589 774.686C524.137 773.996 523.596 773.408 522.965 772.922C522.343 772.436 521.636 772.065 520.843 771.81C520.05 771.554 519.181 771.426 518.235 771.426C516.684 771.426 515.273 771.827 514.004 772.628C512.734 773.429 511.724 774.609 510.974 776.169C510.224 777.729 509.849 779.642 509.849 781.909C509.849 784.176 510.228 786.089 510.987 787.649C511.745 789.209 512.772 790.389 514.067 791.19C515.363 791.991 516.82 792.392 518.44 792.392C519.94 792.392 521.261 792.072 522.403 791.433C523.553 790.786 524.448 789.874 525.087 788.697C525.735 787.513 526.059 786.119 526.059 784.517L527.031 784.722H519.156V781.909H529.127V784.722C529.127 786.878 528.667 788.753 527.746 790.347C526.835 791.94 525.573 793.176 523.962 794.054C522.36 794.923 520.519 795.358 518.44 795.358C516.121 795.358 514.085 794.812 512.329 793.722C510.582 792.631 509.218 791.08 508.238 789.068C507.266 787.057 506.781 784.67 506.781 781.909C506.781 779.838 507.058 777.976 507.612 776.322C508.174 774.661 508.967 773.246 509.989 772.078C511.012 770.911 512.222 770.016 513.62 769.393C515.018 768.771 516.556 768.46 518.235 768.46C519.616 768.46 520.903 768.669 522.096 769.087C523.298 769.496 524.367 770.08 525.305 770.838C526.251 771.588 527.039 772.487 527.67 773.536C528.3 774.575 528.735 775.73 528.974 777H525.701ZM534.557 795V768.818H543.404C545.449 768.818 547.128 769.168 548.441 769.866C549.753 770.557 550.725 771.507 551.355 772.717C551.986 773.928 552.301 775.304 552.301 776.847C552.301 778.389 551.986 779.757 551.355 780.95C550.725 782.143 549.757 783.081 548.453 783.763C547.15 784.436 545.483 784.773 543.455 784.773H536.296V781.909H543.353C544.75 781.909 545.875 781.705 546.728 781.295C547.588 780.886 548.211 780.307 548.594 779.557C548.986 778.798 549.182 777.895 549.182 776.847C549.182 775.798 548.986 774.882 548.594 774.098C548.202 773.314 547.576 772.709 546.715 772.283C545.854 771.848 544.716 771.631 543.301 771.631H537.728V795H534.557ZM546.881 783.239L553.324 795H549.642L543.301 783.239H546.881ZM558.658 795H555.335L564.948 768.818H568.221L577.835 795H574.511L566.687 772.96H566.482L558.658 795ZM559.886 784.773H573.283V787.585H559.886V784.773ZM581.913 795V768.818H597.612V771.631H585.083V780.477H596.435V783.29H585.083V795H581.913ZM625.132 781.909C625.132 784.67 624.634 787.057 623.637 789.068C622.64 791.08 621.272 792.631 619.533 793.722C617.794 794.812 615.809 795.358 613.576 795.358C611.343 795.358 609.357 794.812 607.618 793.722C605.88 792.631 604.512 791.08 603.515 789.068C602.517 787.057 602.019 784.67 602.019 781.909C602.019 779.148 602.517 776.761 603.515 774.75C604.512 772.739 605.88 771.188 607.618 770.097C609.357 769.006 611.343 768.46 613.576 768.46C615.809 768.46 617.794 769.006 619.533 770.097C621.272 771.188 622.64 772.739 623.637 774.75C624.634 776.761 625.132 779.148 625.132 781.909ZM622.064 781.909C622.064 779.642 621.685 777.729 620.926 776.169C620.176 774.609 619.158 773.429 617.871 772.628C616.593 771.827 615.161 771.426 613.576 771.426C611.99 771.426 610.554 771.827 609.267 772.628C607.989 773.429 606.971 774.609 606.212 776.169C605.462 777.729 605.087 779.642 605.087 781.909C605.087 784.176 605.462 786.089 606.212 787.649C606.971 789.209 607.989 790.389 609.267 791.19C610.554 791.991 611.99 792.392 613.576 792.392C615.161 792.392 616.593 791.991 617.871 791.19C619.158 790.389 620.176 789.209 620.926 787.649C621.685 786.089 622.064 784.176 622.064 781.909ZM648.668 795.358C646.742 795.358 645.101 794.834 643.746 793.786C642.391 792.729 641.355 791.199 640.64 789.196C639.924 787.185 639.566 784.756 639.566 781.909C639.566 779.08 639.924 776.663 640.64 774.661C641.364 772.649 642.404 771.115 643.759 770.058C645.123 768.993 646.759 768.46 648.668 768.46C650.577 768.46 652.209 768.993 653.564 770.058C654.928 771.115 655.968 772.649 656.684 774.661C657.408 776.663 657.77 779.08 657.77 781.909C657.77 784.756 657.412 787.185 656.696 789.196C655.98 791.199 654.945 792.729 653.59 793.786C652.235 794.834 650.594 795.358 648.668 795.358ZM648.668 792.545C650.577 792.545 652.06 791.625 653.117 789.784C654.174 787.943 654.702 785.318 654.702 781.909C654.702 779.642 654.459 777.712 653.973 776.118C653.496 774.524 652.806 773.31 651.902 772.474C651.007 771.639 649.929 771.222 648.668 771.222C646.776 771.222 645.297 772.155 644.232 774.021C643.167 775.879 642.634 778.509 642.634 781.909C642.634 784.176 642.873 786.102 643.35 787.688C643.827 789.273 644.513 790.479 645.408 791.305C646.311 792.132 647.398 792.545 648.668 792.545ZM662.628 795V792.699L671.27 783.239C672.284 782.131 673.12 781.168 673.776 780.349C674.432 779.523 674.918 778.747 675.233 778.023C675.557 777.29 675.719 776.523 675.719 775.722C675.719 774.801 675.498 774.004 675.054 773.331C674.62 772.658 674.023 772.138 673.265 771.771C672.506 771.405 671.654 771.222 670.708 771.222C669.702 771.222 668.824 771.43 668.074 771.848C667.333 772.257 666.757 772.832 666.348 773.574C665.948 774.315 665.748 775.185 665.748 776.182H662.73C662.73 774.648 663.084 773.301 663.792 772.142C664.499 770.983 665.462 770.08 666.681 769.432C667.908 768.784 669.284 768.46 670.81 768.46C672.344 768.46 673.703 768.784 674.888 769.432C676.073 770.08 677.002 770.953 677.675 772.053C678.348 773.152 678.685 774.375 678.685 775.722C678.685 776.685 678.51 777.626 678.161 778.547C677.82 779.459 677.223 780.477 676.371 781.602C675.527 782.719 674.355 784.082 672.855 785.693L666.975 791.983V792.188H679.145V795H662.628Z" fill="#1E1E1E"/>
</svg>
