<svg width="400" height="623" viewBox="0 0 400 623" fill="none" xmlns="http://www.w3.org/2000/svg">
<rect y="82" width="249" height="114" rx="14" fill="#D9D9D9"/>
<rect y="8" width="172" height="61" rx="14" fill="#D9D9D9"/>
<rect y="562" width="172" height="61" rx="14" fill="#D9D9D9"/>
<rect x="18" y="209" width="249" height="213" rx="14" fill="#D9D9D9"/>
<rect y="435" width="249" height="114" rx="14" fill="#D9D9D9"/>
<rect y="139" width="249" height="57" rx="14" fill="#1A1A1A" fill-opacity="0.21"/>
<rect y="39" width="172" height="30" rx="14" fill="#1A1A1A" fill-opacity="0.21"/>
<rect y="593" width="172" height="30" rx="14" fill="#1A1A1A" fill-opacity="0.21"/>
<rect x="18" y="316" width="249" height="106" rx="14" fill="#1A1A1A" fill-opacity="0.21"/>
<rect y="492" width="249" height="57" rx="14" fill="#1A1A1A" fill-opacity="0.21"/>
<line x1="157" y1="284" x2="400" y2="284" stroke="#F1B729" stroke-width="4"/>
<line x1="131" y1="124" x2="350" y2="124" stroke="#F1B729" stroke-width="4"/>
<line x1="93.9983" y1="28.5" x2="240.002" y2="28.5" stroke="#F1B729" stroke-width="4"/>
<line x1="94" y1="584.5" x2="240.003" y2="584.5" stroke="#F1B729" stroke-width="4"/>
<line x1="131" y1="471" x2="350" y2="471" stroke="#F1B729" stroke-width="4"/>
<path d="M302.239 251H299.068C298.881 250.088 298.553 249.287 298.084 248.597C297.624 247.906 297.061 247.327 296.396 246.858C295.74 246.381 295.011 246.023 294.21 245.784C293.409 245.545 292.574 245.426 291.705 245.426C290.119 245.426 288.683 245.827 287.396 246.628C286.118 247.429 285.099 248.609 284.341 250.169C283.591 251.729 283.216 253.642 283.216 255.909C283.216 258.176 283.591 260.089 284.341 261.649C285.099 263.209 286.118 264.389 287.396 265.19C288.683 265.991 290.119 266.392 291.705 266.392C292.574 266.392 293.409 266.273 294.21 266.034C295.011 265.795 295.74 265.442 296.396 264.973C297.061 264.496 297.624 263.912 298.084 263.222C298.553 262.523 298.881 261.722 299.068 260.818H302.239C302 262.156 301.565 263.354 300.935 264.411C300.304 265.467 299.52 266.366 298.582 267.108C297.645 267.841 296.592 268.399 295.425 268.783C294.266 269.166 293.026 269.358 291.705 269.358C289.472 269.358 287.486 268.812 285.747 267.722C284.009 266.631 282.641 265.08 281.643 263.068C280.646 261.057 280.148 258.67 280.148 255.909C280.148 253.148 280.646 250.761 281.643 248.75C282.641 246.739 284.009 245.188 285.747 244.097C287.486 243.006 289.472 242.46 291.705 242.46C293.026 242.46 294.266 242.652 295.425 243.036C296.592 243.419 297.645 243.982 298.582 244.723C299.52 245.456 300.304 246.351 300.935 247.408C301.565 248.456 302 249.653 302.239 251ZM308.436 269H305.112L314.725 242.818H317.998L327.612 269H324.288L316.464 246.96H316.26L308.436 269ZM309.663 258.773H323.061V261.585H309.663V258.773ZM331.69 269V242.818H340.537C342.591 242.818 344.27 243.189 345.574 243.93C346.886 244.663 347.858 245.656 348.488 246.909C349.119 248.162 349.434 249.56 349.434 251.102C349.434 252.645 349.119 254.047 348.488 255.308C347.866 256.57 346.903 257.575 345.599 258.325C344.295 259.067 342.625 259.438 340.588 259.438H334.247V256.625H340.485C341.892 256.625 343.021 256.382 343.873 255.896C344.725 255.411 345.343 254.754 345.727 253.928C346.119 253.092 346.315 252.151 346.315 251.102C346.315 250.054 346.119 249.116 345.727 248.29C345.343 247.463 344.721 246.815 343.86 246.347C343 245.869 341.858 245.631 340.434 245.631H334.86V269H331.69ZM352.944 269H349.62L359.233 242.818H362.506L372.12 269H368.796L360.972 246.96H360.767L352.944 269ZM354.171 258.773H367.569V261.585H354.171V258.773Z" fill="#1E1E1E"/>
<path d="M272.199 102H269.557C269.401 101.24 269.127 100.572 268.737 99.9972C268.353 99.4219 267.884 98.9389 267.33 98.5483C266.783 98.1506 266.176 97.8523 265.509 97.6534C264.841 97.4545 264.145 97.3551 263.42 97.3551C262.099 97.3551 260.903 97.6889 259.83 98.3565C258.765 99.0241 257.916 100.008 257.284 101.308C256.659 102.607 256.347 104.202 256.347 106.091C256.347 107.98 256.659 109.575 257.284 110.874C257.916 112.174 258.765 113.158 259.83 113.825C260.903 114.493 262.099 114.827 263.42 114.827C264.145 114.827 264.841 114.727 265.509 114.528C266.176 114.33 266.783 114.035 267.33 113.644C267.884 113.246 268.353 112.76 268.737 112.185C269.127 111.602 269.401 110.935 269.557 110.182H272.199C272 111.297 271.638 112.295 271.112 113.175C270.587 114.056 269.933 114.805 269.152 115.423C268.371 116.034 267.494 116.499 266.521 116.819C265.555 117.138 264.521 117.298 263.42 117.298C261.56 117.298 259.905 116.844 258.456 115.935C257.007 115.026 255.867 113.733 255.036 112.057C254.205 110.381 253.79 108.392 253.79 106.091C253.79 103.79 254.205 101.801 255.036 100.125C255.867 98.4489 257.007 97.1562 258.456 96.2472C259.905 95.3381 261.56 94.8835 263.42 94.8835C264.521 94.8835 265.555 95.0433 266.521 95.3629C267.494 95.6825 268.371 96.1513 269.152 96.7692C269.933 97.38 270.587 98.1257 271.112 99.0064C271.638 99.88 272 100.878 272.199 102ZM277.363 117H274.593L282.605 95.1818H285.332L293.343 117H290.573L284.053 98.6335H283.883L277.363 117ZM278.386 108.477H289.551V110.821H278.386V108.477ZM296.742 117V95.1818H304.114C305.825 95.1818 307.225 95.4908 308.311 96.1087C309.405 96.7195 310.215 97.5469 310.74 98.5909C311.266 99.6349 311.529 100.8 311.529 102.085C311.529 103.371 311.266 104.539 310.74 105.59C310.222 106.641 309.419 107.479 308.333 108.104C307.246 108.722 305.854 109.031 304.156 109.031H298.872V106.688H304.071C305.243 106.688 306.184 106.485 306.894 106.08C307.605 105.675 308.119 105.129 308.439 104.44C308.766 103.744 308.929 102.959 308.929 102.085C308.929 101.212 308.766 100.43 308.439 99.7415C308.119 99.0526 307.601 98.5128 306.884 98.1222C306.166 97.7244 305.215 97.5256 304.029 97.5256H299.384V117H296.742ZM314.453 117H311.683L319.694 95.1818H322.422L330.433 117H327.663L321.143 98.6335H320.973L314.453 117ZM315.476 108.477H326.64V110.821H315.476V108.477Z" fill="#1E1E1E"/>
<path d="M185.159 11H183.045C182.92 10.392 182.702 9.85795 182.389 9.39773C182.082 8.9375 181.707 8.55114 181.264 8.23864C180.827 7.92045 180.341 7.68182 179.807 7.52273C179.273 7.36364 178.716 7.28409 178.136 7.28409C177.08 7.28409 176.122 7.55114 175.264 8.08523C174.412 8.61932 173.733 9.40625 173.227 10.446C172.727 11.4858 172.477 12.7614 172.477 14.2727C172.477 15.7841 172.727 17.0597 173.227 18.0994C173.733 19.1392 174.412 19.9261 175.264 20.4602C176.122 20.9943 177.08 21.2614 178.136 21.2614C178.716 21.2614 179.273 21.1818 179.807 21.0227C180.341 20.8636 180.827 20.6278 181.264 20.3153C181.707 19.9972 182.082 19.608 182.389 19.1477C182.702 18.6818 182.92 18.1477 183.045 17.5455H185.159C185 18.4375 184.71 19.2358 184.29 19.9403C183.869 20.6449 183.347 21.2443 182.722 21.7386C182.097 22.2273 181.395 22.5994 180.616 22.8551C179.844 23.1108 179.017 23.2386 178.136 23.2386C176.648 23.2386 175.324 22.875 174.165 22.1477C173.006 21.4205 172.094 20.3864 171.429 19.0455C170.764 17.7045 170.432 16.1136 170.432 14.2727C170.432 12.4318 170.764 10.8409 171.429 9.5C172.094 8.15909 173.006 7.125 174.165 6.39773C175.324 5.67045 176.648 5.30682 178.136 5.30682C179.017 5.30682 179.844 5.43466 180.616 5.69034C181.395 5.94602 182.097 6.32102 182.722 6.81534C183.347 7.30398 183.869 7.90057 184.29 8.60511C184.71 9.30398 185 10.1023 185.159 11ZM189.29 23H187.075L193.484 5.54545H195.665L202.075 23H199.859L194.643 8.30682H194.506L189.29 23ZM190.109 16.1818H199.04V18.0568H190.109V16.1818ZM204.793 23V5.54545H210.691C212.06 5.54545 213.18 5.79261 214.049 6.28693C214.924 6.77557 215.572 7.4375 215.992 8.27273C216.413 9.10795 216.623 10.0398 216.623 11.0682C216.623 12.0966 216.413 13.0312 215.992 13.8722C215.577 14.7131 214.935 15.3835 214.066 15.8835C213.197 16.3778 212.083 16.625 210.725 16.625H206.498V14.75H210.657C211.594 14.75 212.347 14.5881 212.915 14.2642C213.484 13.9403 213.896 13.5028 214.151 12.9517C214.413 12.3949 214.543 11.767 214.543 11.0682C214.543 10.3693 214.413 9.74432 214.151 9.19318C213.896 8.64205 213.481 8.21023 212.907 7.89773C212.333 7.57955 211.572 7.42045 210.623 7.42045H206.907V23H204.793ZM218.962 23H216.746L223.156 5.54545H225.337L231.746 23H229.531L224.315 8.30682H224.178L218.962 23ZM219.781 16.1818H228.712V18.0568H219.781V16.1818Z" fill="#1E1E1E"/>
<path d="M185.161 567H183.047C182.922 566.392 182.703 565.858 182.391 565.398C182.084 564.938 181.709 564.551 181.266 564.239C180.828 563.92 180.343 563.682 179.809 563.523C179.274 563.364 178.718 563.284 178.138 563.284C177.081 563.284 176.124 563.551 175.266 564.085C174.414 564.619 173.735 565.406 173.229 566.446C172.729 567.486 172.479 568.761 172.479 570.273C172.479 571.784 172.729 573.06 173.229 574.099C173.735 575.139 174.414 575.926 175.266 576.46C176.124 576.994 177.081 577.261 178.138 577.261C178.718 577.261 179.274 577.182 179.809 577.023C180.343 576.864 180.828 576.628 181.266 576.315C181.709 575.997 182.084 575.608 182.391 575.148C182.703 574.682 182.922 574.148 183.047 573.545H185.161C185.002 574.437 184.712 575.236 184.291 575.94C183.871 576.645 183.348 577.244 182.723 577.739C182.098 578.227 181.397 578.599 180.618 578.855C179.845 579.111 179.019 579.239 178.138 579.239C176.649 579.239 175.326 578.875 174.166 578.148C173.007 577.42 172.095 576.386 171.431 575.045C170.766 573.705 170.434 572.114 170.434 570.273C170.434 568.432 170.766 566.841 171.431 565.5C172.095 564.159 173.007 563.125 174.166 562.398C175.326 561.67 176.649 561.307 178.138 561.307C179.019 561.307 179.845 561.435 180.618 561.69C181.397 561.946 182.098 562.321 182.723 562.815C183.348 563.304 183.871 563.901 184.291 564.605C184.712 565.304 185.002 566.102 185.161 567ZM189.292 579H187.076L193.485 561.545H195.667L202.076 579H199.86L194.644 564.307H194.508L189.292 579ZM190.11 572.182H199.042V574.057H190.11V572.182ZM204.795 579V561.545H210.693C212.062 561.545 213.181 561.793 214.051 562.287C214.926 562.776 215.573 563.438 215.994 564.273C216.414 565.108 216.625 566.04 216.625 567.068C216.625 568.097 216.414 569.031 215.994 569.872C215.579 570.713 214.937 571.384 214.068 571.884C213.198 572.378 212.085 572.625 210.727 572.625H206.5V570.75H210.659C211.596 570.75 212.349 570.588 212.917 570.264C213.485 569.94 213.897 569.503 214.153 568.952C214.414 568.395 214.545 567.767 214.545 567.068C214.545 566.369 214.414 565.744 214.153 565.193C213.897 564.642 213.483 564.21 212.909 563.898C212.335 563.58 211.573 563.42 210.625 563.42H206.909V579H204.795ZM218.964 579H216.748L223.157 561.545H225.339L231.748 579H229.532L224.316 564.307H224.18L218.964 579ZM219.782 572.182H228.714V574.057H219.782V572.182Z" fill="#1E1E1E"/>
<path d="M272.199 449H269.557C269.401 448.24 269.127 447.572 268.737 446.997C268.353 446.422 267.884 445.939 267.33 445.548C266.783 445.151 266.176 444.852 265.509 444.653C264.841 444.455 264.145 444.355 263.42 444.355C262.099 444.355 260.903 444.689 259.83 445.357C258.765 446.024 257.916 447.008 257.284 448.308C256.659 449.607 256.347 451.202 256.347 453.091C256.347 454.98 256.659 456.575 257.284 457.874C257.916 459.174 258.765 460.158 259.83 460.825C260.903 461.493 262.099 461.827 263.42 461.827C264.145 461.827 264.841 461.727 265.509 461.528C266.176 461.33 266.783 461.035 267.33 460.644C267.884 460.246 268.353 459.76 268.737 459.185C269.127 458.602 269.401 457.935 269.557 457.182H272.199C272 458.297 271.638 459.295 271.112 460.175C270.587 461.056 269.933 461.805 269.152 462.423C268.371 463.034 267.494 463.499 266.521 463.819C265.555 464.138 264.521 464.298 263.42 464.298C261.56 464.298 259.905 463.844 258.456 462.935C257.007 462.026 255.867 460.733 255.036 459.057C254.205 457.381 253.79 455.392 253.79 453.091C253.79 450.79 254.205 448.801 255.036 447.125C255.867 445.449 257.007 444.156 258.456 443.247C259.905 442.338 261.56 441.884 263.42 441.884C264.521 441.884 265.555 442.043 266.521 442.363C267.494 442.683 268.371 443.151 269.152 443.769C269.933 444.38 270.587 445.126 271.112 446.006C271.638 446.88 272 447.878 272.199 449ZM277.363 464H274.593L282.605 442.182H285.332L293.343 464H290.573L284.053 445.634H283.883L277.363 464ZM278.386 455.477H289.551V457.821H278.386V455.477ZM296.742 464V442.182H304.114C305.825 442.182 307.225 442.491 308.311 443.109C309.405 443.719 310.215 444.547 310.74 445.591C311.266 446.635 311.529 447.8 311.529 449.085C311.529 450.371 311.266 451.539 310.74 452.59C310.222 453.641 309.419 454.479 308.333 455.104C307.246 455.722 305.854 456.031 304.156 456.031H298.872V453.688H304.071C305.243 453.688 306.184 453.485 306.894 453.08C307.605 452.675 308.119 452.129 308.439 451.44C308.766 450.744 308.929 449.959 308.929 449.085C308.929 448.212 308.766 447.43 308.439 446.741C308.119 446.053 307.601 445.513 306.884 445.122C306.166 444.724 305.215 444.526 304.029 444.526H299.384V464H296.742ZM314.453 464H311.683L319.694 442.182H322.422L330.433 464H327.663L321.143 445.634H320.973L314.453 464ZM315.476 455.477H326.64V457.821H315.476V455.477Z" fill="#1E1E1E"/>
</svg>
