<svg width="430" height="219" viewBox="0 0 430 219" fill="none" xmlns="http://www.w3.org/2000/svg">
<rect width="430" height="219" rx="14" fill="#D9D9D9"/>
<rect x="17" y="12" width="345" height="188" rx="14" fill="#1A1A1A" fill-opacity="0.21"/>
<rect x="370" y="12" width="50" height="51" rx="14" fill="#1A1A1A" fill-opacity="0.21"/>
<path d="M399.875 22.0834H391.125C390.32 22.0834 389.667 22.7736 389.667 23.625V26.7084C389.667 27.5598 390.32 28.25 391.125 28.25H399.875C400.68 28.25 401.333 27.5598 401.333 26.7084V23.625C401.333 22.7736 400.68 22.0834 399.875 22.0834Z" stroke="#646464" stroke-width="4" stroke-linecap="round" stroke-linejoin="round"/>
<path d="M401.333 25.1666H404.25C405.024 25.1666 405.765 25.4915 406.312 26.0697C406.859 26.648 407.167 27.4322 407.167 28.25V49.8333C407.167 50.651 406.859 51.4353 406.312 52.0135C405.765 52.5918 405.024 52.9166 404.25 52.9166H386.75C385.976 52.9166 385.235 52.5918 384.688 52.0135C384.141 51.4353 383.833 50.651 383.833 49.8333V28.25C383.833 27.4322 384.141 26.648 384.688 26.0697C385.235 25.4915 385.976 25.1666 386.75 25.1666H389.667" stroke="#646464" stroke-width="4" stroke-linecap="round" stroke-linejoin="round"/>
<line y1="-2" x2="305.001" y2="-2" transform="matrix(0.999997 0.00231292 -0.00989747 0.999951 36 27)" stroke="#646464" stroke-width="4"/>
<line y1="-2" x2="305.001" y2="-2" transform="matrix(0.999997 0.00231292 -0.00989747 0.999951 36 110.798)" stroke="#646464" stroke-width="4"/>
<line y1="-2" x2="305.001" y2="-2" transform="matrix(0.999997 0.00231292 -0.00989747 0.999951 36 54.9324)" stroke="#646464" stroke-width="4"/>
<line y1="-2" x2="305.001" y2="-2" transform="matrix(0.999997 0.00231292 -0.00989747 0.999951 36 138.731)" stroke="#646464" stroke-width="4"/>
<line y1="-2" x2="251" y2="-2" transform="matrix(0.999997 0.00231292 -0.00989747 0.999951 36 82.8647)" stroke="#646464" stroke-width="4"/>
<line y1="-2" x2="187" y2="-2" transform="matrix(0.999997 0.00231292 -0.00989747 0.999951 36 166.663)" stroke="#646464" stroke-width="4"/>
<line y1="-2" x2="305.001" y2="-2" transform="matrix(0.999997 0.00231292 -0.00989747 0.999951 36 45.6216)" stroke="#646464" stroke-width="4"/>
<line y1="-2" x2="244" y2="-2" transform="matrix(0.999997 0.00231292 -0.00989747 0.999951 36 129.42)" stroke="#646464" stroke-width="4"/>
<line y1="-2" x2="305.001" y2="-2" transform="matrix(0.999997 0.00231292 -0.00989747 0.999951 36 73.554)" stroke="#646464" stroke-width="4"/>
<line y1="-2" x2="305.001" y2="-2" transform="matrix(0.999997 0.00231292 -0.00989747 0.999951 36 157.352)" stroke="#646464" stroke-width="4"/>
<line y1="-2" x2="280" y2="-2" transform="matrix(0.999997 0.00231292 -0.00989747 0.999951 36 101.486)" stroke="#646464" stroke-width="4"/>
<line y1="-2" x2="255" y2="-2" transform="matrix(0.999997 0.00231292 -0.00989747 0.999951 36 185.285)" stroke="#646464" stroke-width="4"/>
<line y1="-2" x2="264" y2="-2" transform="matrix(0.999997 0.00231292 -0.00989747 0.999951 36 36.3108)" stroke="#646464" stroke-width="4"/>
<line x1="35.9989" y1="118.109" x2="235.999" y2="118.003" stroke="#646464" stroke-width="4"/>
<line y1="-2" x2="242" y2="-2" transform="matrix(0.999997 0.00231292 -0.00989747 0.999951 36 64.2432)" stroke="#646464" stroke-width="4"/>
<line y1="-2" x2="294" y2="-2" transform="matrix(0.999997 0.00231292 -0.00989747 0.999951 36 148.041)" stroke="#646464" stroke-width="4"/>
<line y1="-2" x2="260" y2="-2" transform="matrix(0.999997 0.00231292 -0.00989747 0.999951 36 92.1755)" stroke="#646464" stroke-width="4"/>
<line y1="-2" x2="285" y2="-2" transform="matrix(0.999997 0.00231292 -0.00989747 0.999951 36 175.974)" stroke="#646464" stroke-width="4"/>
</svg>
