<svg width="375" height="274" viewBox="0 0 375 274" fill="none" xmlns="http://www.w3.org/2000/svg">
<g filter="url(#filter0_d_1438_520)">
<path fill-rule="evenodd" clip-rule="evenodd" d="M0 2H375V274H0V2Z" fill="#CDCECF"/>
<g filter="url(#filter1_d_1438_520)">
<rect x="283.5" y="191" width="89.5" height="44" rx="9" fill="#5552FF" stroke="#1D1D1F" stroke-width="2"/>
<path d="M301.927 220C301.781 220 301.661 219.953 301.567 219.86C301.474 219.767 301.427 219.647 301.427 219.5V206.5C301.427 206.353 301.474 206.233 301.567 206.14C301.661 206.047 301.781 206 301.927 206H304.567C304.701 206 304.814 206.047 304.907 206.14C305.014 206.233 305.067 206.353 305.067 206.5V216.98H311.107C311.254 216.98 311.374 217.033 311.467 217.14C311.574 217.233 311.627 217.353 311.627 217.5V219.5C311.627 219.647 311.574 219.767 311.467 219.86C311.374 219.953 311.254 220 311.107 220H301.927ZM316.261 220.2C315.541 220.2 314.894 220.067 314.321 219.8C313.761 219.52 313.314 219.147 312.981 218.68C312.648 218.213 312.481 217.687 312.481 217.1C312.481 216.153 312.868 215.407 313.641 214.86C314.414 214.3 315.441 213.92 316.721 213.72L319.221 213.34V213.06C319.221 212.58 319.121 212.213 318.921 211.96C318.721 211.707 318.354 211.58 317.821 211.58C317.448 211.58 317.141 211.653 316.901 211.8C316.674 211.947 316.494 212.147 316.361 212.4C316.241 212.573 316.074 212.66 315.861 212.66H313.621C313.474 212.66 313.361 212.62 313.281 212.54C313.201 212.447 313.168 212.34 313.181 212.22C313.181 211.98 313.268 211.707 313.441 211.4C313.628 211.08 313.908 210.767 314.281 210.46C314.654 210.153 315.134 209.9 315.721 209.7C316.308 209.5 317.014 209.4 317.841 209.4C318.708 209.4 319.448 209.5 320.061 209.7C320.674 209.9 321.168 210.18 321.541 210.54C321.928 210.9 322.214 211.327 322.401 211.82C322.588 212.3 322.681 212.833 322.681 213.42V219.5C322.681 219.647 322.628 219.767 322.521 219.86C322.428 219.953 322.314 220 322.181 220H319.861C319.714 220 319.594 219.953 319.501 219.86C319.408 219.767 319.361 219.647 319.361 219.5V218.8C319.188 219.053 318.954 219.287 318.661 219.5C318.368 219.713 318.021 219.88 317.621 220C317.234 220.133 316.781 220.2 316.261 220.2ZM317.201 217.92C317.588 217.92 317.934 217.84 318.241 217.68C318.561 217.507 318.808 217.247 318.981 216.9C319.168 216.54 319.261 216.093 319.261 215.56V215.28L317.561 215.58C316.934 215.687 316.474 215.853 316.181 216.08C315.901 216.293 315.761 216.547 315.761 216.84C315.761 217.067 315.828 217.26 315.961 217.42C316.094 217.58 316.268 217.707 316.481 217.8C316.694 217.88 316.934 217.92 317.201 217.92ZM331.298 220.2C330.551 220.2 329.924 220.073 329.418 219.82C328.924 219.567 328.518 219.247 328.198 218.86V219.5C328.198 219.647 328.144 219.767 328.038 219.86C327.944 219.953 327.831 220 327.698 220H325.438C325.291 220 325.171 219.953 325.078 219.86C324.984 219.767 324.938 219.647 324.938 219.5V206.3C324.938 206.153 324.984 206.033 325.078 205.94C325.171 205.847 325.291 205.8 325.438 205.8H327.878C328.024 205.8 328.144 205.847 328.238 205.94C328.331 206.033 328.378 206.153 328.378 206.3V210.58C328.698 210.233 329.098 209.953 329.578 209.74C330.071 209.513 330.644 209.4 331.298 209.4C331.964 209.4 332.551 209.513 333.058 209.74C333.578 209.953 334.018 210.267 334.378 210.68C334.738 211.093 335.018 211.587 335.218 212.16C335.418 212.733 335.531 213.38 335.558 214.1C335.571 214.353 335.578 214.587 335.578 214.8C335.578 215 335.571 215.233 335.558 215.5C335.531 216.247 335.411 216.913 335.198 217.5C334.998 218.073 334.718 218.567 334.358 218.98C333.998 219.38 333.564 219.687 333.058 219.9C332.551 220.1 331.964 220.2 331.298 220.2ZM330.218 217.52C330.671 217.52 331.024 217.427 331.278 217.24C331.531 217.053 331.711 216.8 331.818 216.48C331.938 216.16 332.011 215.807 332.038 215.42C332.064 215.007 332.064 214.593 332.038 214.18C332.011 213.793 331.938 213.44 331.818 213.12C331.711 212.8 331.531 212.547 331.278 212.36C331.024 212.173 330.671 212.08 330.218 212.08C329.804 212.08 329.464 212.173 329.198 212.36C328.931 212.533 328.731 212.767 328.598 213.06C328.464 213.34 328.391 213.647 328.378 213.98C328.364 214.233 328.358 214.48 328.358 214.72C328.358 214.96 328.364 215.213 328.378 215.48C328.391 215.84 328.458 216.173 328.578 216.48C328.698 216.787 328.891 217.04 329.158 217.24C329.424 217.427 329.778 217.52 330.218 217.52ZM342.355 220.2C340.782 220.2 339.528 219.773 338.595 218.92C337.662 218.067 337.175 216.8 337.135 215.12C337.135 215.027 337.135 214.907 337.135 214.76C337.135 214.613 337.135 214.5 337.135 214.42C337.175 213.367 337.408 212.467 337.835 211.72C338.275 210.96 338.875 210.387 339.635 210C340.408 209.6 341.308 209.4 342.335 209.4C343.508 209.4 344.475 209.633 345.235 210.1C346.008 210.567 346.588 211.2 346.975 212C347.362 212.8 347.555 213.713 347.555 214.74V215.22C347.555 215.367 347.502 215.487 347.395 215.58C347.302 215.673 347.188 215.72 347.055 215.72H340.655C340.655 215.733 340.655 215.753 340.655 215.78C340.655 215.807 340.655 215.833 340.655 215.86C340.668 216.247 340.735 216.6 340.855 216.92C340.975 217.24 341.162 217.493 341.415 217.68C341.668 217.867 341.975 217.96 342.335 217.96C342.602 217.96 342.822 217.92 342.995 217.84C343.182 217.747 343.335 217.647 343.455 217.54C343.575 217.42 343.668 217.32 343.735 217.24C343.855 217.107 343.948 217.027 344.015 217C344.095 216.96 344.215 216.94 344.375 216.94H346.855C346.988 216.94 347.095 216.98 347.175 217.06C347.268 217.127 347.308 217.227 347.295 217.36C347.282 217.587 347.168 217.86 346.955 218.18C346.742 218.5 346.428 218.82 346.015 219.14C345.615 219.447 345.108 219.7 344.495 219.9C343.882 220.1 343.168 220.2 342.355 220.2ZM340.655 213.74H344.035V213.7C344.035 213.273 343.968 212.9 343.835 212.58C343.715 212.26 343.522 212.013 343.255 211.84C343.002 211.667 342.695 211.58 342.335 211.58C341.975 211.58 341.668 211.667 341.415 211.84C341.175 212.013 340.988 212.26 340.855 212.58C340.722 212.9 340.655 213.273 340.655 213.7V213.74ZM349.93 220C349.783 220 349.663 219.953 349.57 219.86C349.477 219.767 349.43 219.647 349.43 219.5V206.3C349.43 206.153 349.477 206.033 349.57 205.94C349.663 205.847 349.783 205.8 349.93 205.8H352.29C352.437 205.8 352.557 205.847 352.65 205.94C352.743 206.033 352.79 206.153 352.79 206.3V219.5C352.79 219.647 352.743 219.767 352.65 219.86C352.557 219.953 352.437 220 352.29 220H349.93Z" fill="#FAFAFC"/>
<rect x="94" y="191" width="185.369" height="44" rx="9" fill="#FAFAFC" stroke="#1D1D1F" stroke-width="2"/>
<path d="M163.087 220.2C161.753 220.2 160.647 220.013 159.767 219.64C158.887 219.253 158.22 218.753 157.767 218.14C157.313 217.527 157.073 216.873 157.047 216.18C157.047 216.073 157.087 215.98 157.167 215.9C157.26 215.807 157.367 215.76 157.487 215.76H160.007C160.193 215.76 160.333 215.793 160.427 215.86C160.533 215.927 160.627 216.013 160.707 216.12C160.813 216.32 160.96 216.513 161.147 216.7C161.347 216.887 161.6 217.04 161.907 217.16C162.227 217.267 162.62 217.32 163.087 217.32C163.86 217.32 164.44 217.2 164.827 216.96C165.227 216.72 165.427 216.393 165.427 215.98C165.427 215.687 165.32 215.447 165.107 215.26C164.893 215.06 164.547 214.887 164.067 214.74C163.6 214.58 162.973 214.42 162.187 214.26C161.173 214.047 160.307 213.773 159.587 213.44C158.88 213.093 158.34 212.647 157.967 212.1C157.593 211.54 157.407 210.847 157.407 210.02C157.407 209.207 157.633 208.48 158.087 207.84C158.553 207.2 159.2 206.7 160.027 206.34C160.853 205.98 161.833 205.8 162.967 205.8C163.887 205.8 164.693 205.92 165.387 206.16C166.093 206.4 166.687 206.72 167.167 207.12C167.647 207.52 168.007 207.947 168.247 208.4C168.5 208.84 168.633 209.273 168.647 209.7C168.647 209.807 168.607 209.907 168.527 210C168.447 210.08 168.347 210.12 168.227 210.12H165.587C165.44 210.12 165.313 210.093 165.207 210.04C165.1 209.987 165.007 209.9 164.927 209.78C164.847 209.487 164.633 209.233 164.287 209.02C163.953 208.793 163.513 208.68 162.967 208.68C162.38 208.68 161.92 208.787 161.587 209C161.267 209.2 161.107 209.513 161.107 209.94C161.107 210.207 161.193 210.44 161.367 210.64C161.553 210.84 161.853 211.013 162.267 211.16C162.693 211.307 163.273 211.46 164.007 211.62C165.22 211.847 166.2 212.133 166.947 212.48C167.693 212.813 168.24 213.253 168.587 213.8C168.933 214.333 169.107 215.007 169.107 215.82C169.107 216.727 168.847 217.513 168.327 218.18C167.82 218.833 167.113 219.333 166.207 219.68C165.3 220.027 164.26 220.2 163.087 220.2ZM171.389 223.8C171.242 223.8 171.122 223.753 171.029 223.66C170.936 223.567 170.889 223.447 170.889 223.3V210.1C170.889 209.953 170.936 209.833 171.029 209.74C171.122 209.647 171.242 209.6 171.389 209.6H173.649C173.782 209.6 173.896 209.647 173.989 209.74C174.096 209.833 174.149 209.953 174.149 210.1V210.84C174.456 210.427 174.862 210.087 175.369 209.82C175.876 209.54 176.502 209.4 177.249 209.4C177.916 209.4 178.502 209.507 179.009 209.72C179.516 209.92 179.949 210.22 180.309 210.62C180.669 211.02 180.949 211.507 181.149 212.08C181.362 212.653 181.482 213.313 181.509 214.06C181.522 214.327 181.529 214.573 181.529 214.8C181.529 215.027 181.522 215.273 181.509 215.54C181.482 216.26 181.369 216.907 181.169 217.48C180.969 218.053 180.689 218.54 180.329 218.94C179.969 219.34 179.529 219.653 179.009 219.88C178.502 220.093 177.916 220.2 177.249 220.2C176.596 220.2 176.022 220.087 175.529 219.86C175.049 219.62 174.649 219.287 174.329 218.86V223.3C174.329 223.447 174.282 223.567 174.189 223.66C174.096 223.753 173.976 223.8 173.829 223.8H171.389ZM176.169 217.52C176.622 217.52 176.976 217.427 177.229 217.24C177.482 217.053 177.662 216.8 177.769 216.48C177.889 216.16 177.962 215.807 177.989 215.42C178.016 215.007 178.016 214.593 177.989 214.18C177.962 213.793 177.889 213.44 177.769 213.12C177.662 212.8 177.482 212.547 177.229 212.36C176.976 212.173 176.622 212.08 176.169 212.08C175.729 212.08 175.376 212.18 175.109 212.38C174.842 212.567 174.649 212.813 174.529 213.12C174.409 213.427 174.342 213.76 174.329 214.12C174.316 214.373 174.309 214.62 174.309 214.86C174.309 215.1 174.316 215.353 174.329 215.62C174.342 215.953 174.416 216.267 174.549 216.56C174.682 216.84 174.882 217.073 175.149 217.26C175.416 217.433 175.756 217.52 176.169 217.52ZM186.626 220.2C185.906 220.2 185.26 220.067 184.686 219.8C184.126 219.52 183.68 219.147 183.346 218.68C183.013 218.213 182.846 217.687 182.846 217.1C182.846 216.153 183.233 215.407 184.006 214.86C184.78 214.3 185.806 213.92 187.086 213.72L189.586 213.34V213.06C189.586 212.58 189.486 212.213 189.286 211.96C189.086 211.707 188.72 211.58 188.186 211.58C187.813 211.58 187.506 211.653 187.266 211.8C187.04 211.947 186.86 212.147 186.726 212.4C186.606 212.573 186.44 212.66 186.226 212.66H183.986C183.84 212.66 183.726 212.62 183.646 212.54C183.566 212.447 183.533 212.34 183.546 212.22C183.546 211.98 183.633 211.707 183.806 211.4C183.993 211.08 184.273 210.767 184.646 210.46C185.02 210.153 185.5 209.9 186.086 209.7C186.673 209.5 187.38 209.4 188.206 209.4C189.073 209.4 189.813 209.5 190.426 209.7C191.04 209.9 191.533 210.18 191.906 210.54C192.293 210.9 192.58 211.327 192.766 211.82C192.953 212.3 193.046 212.833 193.046 213.42V219.5C193.046 219.647 192.993 219.767 192.886 219.86C192.793 219.953 192.68 220 192.546 220H190.226C190.08 220 189.96 219.953 189.866 219.86C189.773 219.767 189.726 219.647 189.726 219.5V218.8C189.553 219.053 189.32 219.287 189.026 219.5C188.733 219.713 188.386 219.88 187.986 220C187.6 220.133 187.146 220.2 186.626 220.2ZM187.566 217.92C187.953 217.92 188.3 217.84 188.606 217.68C188.926 217.507 189.173 217.247 189.346 216.9C189.533 216.54 189.626 216.093 189.626 215.56V215.28L187.926 215.58C187.3 215.687 186.84 215.853 186.546 216.08C186.266 216.293 186.126 216.547 186.126 216.84C186.126 217.067 186.193 217.26 186.326 217.42C186.46 217.58 186.633 217.707 186.846 217.8C187.06 217.88 187.3 217.92 187.566 217.92ZM200.083 220.2C199.096 220.2 198.223 220.02 197.463 219.66C196.703 219.3 196.096 218.78 195.643 218.1C195.203 217.407 194.963 216.58 194.923 215.62C194.91 215.407 194.903 215.14 194.903 214.82C194.903 214.487 194.91 214.213 194.923 214C194.963 213.027 195.203 212.2 195.643 211.52C196.083 210.827 196.683 210.3 197.443 209.94C198.216 209.58 199.096 209.4 200.083 209.4C201.003 209.4 201.79 209.533 202.443 209.8C203.096 210.053 203.63 210.373 204.043 210.76C204.456 211.147 204.763 211.547 204.963 211.96C205.176 212.36 205.29 212.713 205.303 213.02C205.316 213.153 205.27 213.273 205.163 213.38C205.056 213.473 204.936 213.52 204.803 213.52H202.263C202.116 213.52 202.003 213.487 201.923 213.42C201.843 213.353 201.77 213.253 201.703 213.12C201.543 212.707 201.336 212.413 201.083 212.24C200.843 212.067 200.53 211.98 200.143 211.98C199.61 211.98 199.196 212.153 198.903 212.5C198.623 212.847 198.47 213.38 198.443 214.1C198.43 214.633 198.43 215.107 198.443 215.52C198.47 216.253 198.623 216.787 198.903 217.12C199.196 217.453 199.61 217.62 200.143 217.62C200.556 217.62 200.883 217.533 201.123 217.36C201.363 217.187 201.556 216.893 201.703 216.48C201.77 216.347 201.843 216.247 201.923 216.18C202.003 216.113 202.116 216.08 202.263 216.08H204.803C204.936 216.08 205.056 216.133 205.163 216.24C205.27 216.333 205.316 216.447 205.303 216.58C205.29 216.807 205.223 217.073 205.103 217.38C204.983 217.673 204.796 217.987 204.543 218.32C204.29 218.653 203.956 218.967 203.543 219.26C203.143 219.54 202.656 219.767 202.083 219.94C201.51 220.113 200.843 220.2 200.083 220.2ZM211.9 220.2C210.327 220.2 209.073 219.773 208.14 218.92C207.207 218.067 206.72 216.8 206.68 215.12C206.68 215.027 206.68 214.907 206.68 214.76C206.68 214.613 206.68 214.5 206.68 214.42C206.72 213.367 206.953 212.467 207.38 211.72C207.82 210.96 208.42 210.387 209.18 210C209.953 209.6 210.853 209.4 211.88 209.4C213.053 209.4 214.02 209.633 214.78 210.1C215.553 210.567 216.133 211.2 216.52 212C216.907 212.8 217.1 213.713 217.1 214.74V215.22C217.1 215.367 217.047 215.487 216.94 215.58C216.847 215.673 216.733 215.72 216.6 215.72H210.2C210.2 215.733 210.2 215.753 210.2 215.78C210.2 215.807 210.2 215.833 210.2 215.86C210.213 216.247 210.28 216.6 210.4 216.92C210.52 217.24 210.707 217.493 210.96 217.68C211.213 217.867 211.52 217.96 211.88 217.96C212.147 217.96 212.367 217.92 212.54 217.84C212.727 217.747 212.88 217.647 213 217.54C213.12 217.42 213.213 217.32 213.28 217.24C213.4 217.107 213.493 217.027 213.56 217C213.64 216.96 213.76 216.94 213.92 216.94H216.4C216.533 216.94 216.64 216.98 216.72 217.06C216.813 217.127 216.853 217.227 216.84 217.36C216.827 217.587 216.713 217.86 216.5 218.18C216.287 218.5 215.973 218.82 215.56 219.14C215.16 219.447 214.653 219.7 214.04 219.9C213.427 220.1 212.713 220.2 211.9 220.2ZM210.2 213.74H213.58V213.7C213.58 213.273 213.513 212.9 213.38 212.58C213.26 212.26 213.067 212.013 212.8 211.84C212.547 211.667 212.24 211.58 211.88 211.58C211.52 211.58 211.213 211.667 210.96 211.84C210.72 212.013 210.533 212.26 210.4 212.58C210.267 212.9 210.2 213.273 210.2 213.7V213.74Z" fill="#1D1D1F"/>
<path d="M75.139 191H14.8H14.7547C12.5528 191 10.839 191 9.46418 191.112C8.06833 191.226 6.9342 191.461 5.91409 191.981C4.22063 192.844 2.8438 194.221 1.98094 195.914C1.46117 196.934 1.22636 198.068 1.11231 199.464C0.999991 200.839 0.999995 202.553 1 204.755V204.8V221.2V221.245C0.999995 223.447 0.999991 225.161 1.11231 226.536C1.22636 227.932 1.46117 229.066 1.98094 230.086C2.8438 231.779 4.22063 233.156 5.91409 234.019C6.9342 234.539 8.06833 234.774 9.46419 234.888C10.839 235 12.5528 235 14.7547 235H14.8H75.139H75.1843C77.3862 235 79.1001 235 80.4748 234.888C81.8707 234.774 83.0048 234.539 84.0249 234.019C85.7184 233.156 87.0952 231.779 87.9581 230.086C88.4779 229.066 88.7127 227.932 88.8267 226.536C88.939 225.161 88.939 223.447 88.939 221.245V221.2V204.8V204.755C88.939 202.553 88.939 200.839 88.8267 199.464C88.7127 198.068 88.4779 196.934 87.9581 195.914C87.0952 194.221 85.7184 192.844 84.0249 191.981C83.0048 191.461 81.8707 191.226 80.4748 191.112C79.1001 191 77.3862 191 75.1843 191H75.139Z" fill="#51545B" stroke="#1D1D1F" stroke-width="2"/>
<path d="M32.9736 220C32.8403 220 32.7203 219.953 32.6136 219.86C32.5203 219.767 32.4736 219.647 32.4736 219.5V209.98L29.7336 212.08C29.6136 212.173 29.4869 212.207 29.3536 212.18C29.2336 212.153 29.1269 212.08 29.0336 211.96L27.8536 210.42C27.7736 210.3 27.7403 210.173 27.7536 210.04C27.7803 209.893 27.8603 209.78 27.9936 209.7L32.5936 206.14C32.6736 206.087 32.7469 206.053 32.8136 206.04C32.8936 206.013 32.9803 206 33.0736 206H35.5736C35.7069 206 35.8203 206.047 35.9136 206.14C36.0203 206.233 36.0736 206.353 36.0736 206.5V219.5C36.0736 219.647 36.0203 219.767 35.9136 219.86C35.8203 219.953 35.7069 220 35.5736 220H32.9736ZM38.715 220C38.5683 220 38.4417 219.953 38.335 219.86C38.2417 219.767 38.195 219.647 38.195 219.5V218.08C38.195 217.987 38.2217 217.847 38.275 217.66C38.3283 217.46 38.4683 217.273 38.695 217.1L40.775 215.06C41.8417 214.247 42.715 213.56 43.395 213C44.0883 212.427 44.6017 211.92 44.935 211.48C45.2683 211.04 45.435 210.627 45.435 210.24C45.435 209.787 45.315 209.413 45.075 209.12C44.8483 208.813 44.4483 208.66 43.875 208.66C43.4883 208.66 43.1617 208.747 42.895 208.92C42.6417 209.08 42.4483 209.293 42.315 209.56C42.1817 209.827 42.0883 210.1 42.035 210.38C41.9817 210.553 41.8883 210.673 41.755 210.74C41.635 210.807 41.5017 210.84 41.355 210.84H38.855C38.735 210.84 38.635 210.8 38.555 210.72C38.475 210.64 38.435 210.54 38.435 210.42C38.4483 209.78 38.5817 209.18 38.835 208.62C39.1017 208.06 39.4683 207.567 39.935 207.14C40.415 206.7 40.9817 206.36 41.635 206.12C42.3017 205.88 43.0483 205.76 43.875 205.76C45.0083 205.76 45.9683 205.94 46.755 206.3C47.555 206.66 48.1617 207.167 48.575 207.82C48.9883 208.46 49.195 209.213 49.195 210.08C49.195 210.733 49.0483 211.347 48.755 211.92C48.475 212.48 48.0683 213.02 47.535 213.54C47.015 214.047 46.395 214.573 45.675 215.12L43.835 216.98H48.975C49.1217 216.98 49.2417 217.027 49.335 217.12C49.4417 217.213 49.495 217.333 49.495 217.48V219.5C49.495 219.647 49.4417 219.767 49.335 219.86C49.2417 219.953 49.1217 220 48.975 220H38.715ZM56.8828 220.2C55.8428 220.2 54.9561 220.08 54.2228 219.84C53.4895 219.587 52.8895 219.267 52.4228 218.88C51.9561 218.48 51.6095 218.06 51.3828 217.62C51.1561 217.167 51.0361 216.733 51.0228 216.32C51.0228 216.2 51.0628 216.1 51.1428 216.02C51.2361 215.94 51.3428 215.9 51.4628 215.9H54.0628C54.2228 215.9 54.3495 215.933 54.4428 216C54.5361 216.053 54.6228 216.147 54.7028 216.28C54.8095 216.533 54.9628 216.74 55.1628 216.9C55.3761 217.06 55.6295 217.173 55.9228 217.24C56.2161 217.293 56.5361 217.32 56.8828 217.32C57.5628 217.32 58.0895 217.167 58.4628 216.86C58.8495 216.54 59.0428 216.107 59.0428 215.56C59.0428 214.987 58.8628 214.58 58.5028 214.34C58.1428 214.087 57.6295 213.96 56.9628 213.96H54.7428C54.5961 213.96 54.4761 213.913 54.3828 213.82C54.2895 213.727 54.2428 213.607 54.2428 213.46V212.34C54.2428 212.18 54.2761 212.04 54.3428 211.92C54.4095 211.8 54.4828 211.713 54.5628 211.66L57.8428 208.88H52.2828C52.1495 208.88 52.0295 208.833 51.9228 208.74C51.8295 208.647 51.7828 208.527 51.7828 208.38V206.5C51.7828 206.353 51.8295 206.233 51.9228 206.14C52.0295 206.047 52.1495 206 52.2828 206H61.4828C61.6295 206 61.7495 206.047 61.8428 206.14C61.9495 206.233 62.0028 206.353 62.0028 206.5V208.2C62.0028 208.347 61.9695 208.48 61.9028 208.6C61.8361 208.707 61.7628 208.793 61.6828 208.86L58.6428 211.68L58.7828 211.72C59.5428 211.813 60.2228 212.02 60.8228 212.34C61.4228 212.647 61.8961 213.08 62.2428 213.64C62.5895 214.2 62.7628 214.913 62.7628 215.78C62.7628 216.687 62.5028 217.473 61.9828 218.14C61.4761 218.793 60.7828 219.3 59.9028 219.66C59.0228 220.02 58.0161 220.2 56.8828 220.2Z" fill="#FAFAFC"/>
</g>
<g filter="url(#filter2_d_1438_520)">
<path d="M359.2 133H342.8H342.755C340.553 133 338.839 133 337.464 133.112C336.068 133.226 334.934 133.461 333.914 133.981C332.221 134.844 330.844 136.221 329.981 137.914C329.461 138.934 329.226 140.068 329.112 141.464C329 142.839 329 144.553 329 146.755V146.8V163.2V163.245C329 165.447 329 167.161 329.112 168.536C329.226 169.932 329.461 171.066 329.981 172.086C330.844 173.779 332.221 175.156 333.914 176.019C334.934 176.539 336.068 176.774 337.464 176.888C338.839 177 340.553 177 342.755 177H342.8H359.2H359.245C361.447 177 363.161 177 364.536 176.888C365.932 176.774 367.066 176.539 368.086 176.019C369.779 175.156 371.156 173.779 372.019 172.086C372.539 171.066 372.774 169.932 372.888 168.536C373 167.161 373 165.447 373 163.245V163.2V146.8V146.755C373 144.553 373 142.839 372.888 141.464C372.774 140.068 372.539 138.934 372.019 137.914C371.156 136.221 369.779 134.844 368.086 133.981C367.066 133.461 365.932 133.226 364.536 133.112C363.161 133 361.447 133 359.245 133H359.2Z" fill="#F3C522" stroke="#1D1D1F" stroke-width="2"/>
<path fill-rule="evenodd" clip-rule="evenodd" d="M339.06 153.939C338.475 154.525 338.475 155.475 339.06 156.061L346.207 163.207C346.394 163.395 346.649 163.5 346.914 163.5H358C359.933 163.5 361.5 161.933 361.5 160V150C361.5 148.067 359.933 146.5 358 146.5H346.914C346.649 146.5 346.394 146.605 346.207 146.793L339.06 153.939ZM340.707 154.293C340.316 154.683 340.316 155.317 340.707 155.707L346.853 161.854C346.947 161.947 347.074 162 347.207 162H358C359.104 162 360 161.105 360 160V150C360 148.895 359.104 148 358 148H347.207C347.074 148 346.947 148.053 346.853 148.146L340.707 154.293ZM356.471 157.806C356.764 158.099 356.764 158.574 356.471 158.867C356.178 159.16 355.703 159.16 355.41 158.867L352.582 156.039L349.753 158.867C349.46 159.16 348.985 159.16 348.693 158.867C348.4 158.574 348.4 158.099 348.693 157.806L351.521 154.978L348.692 152.149C348.4 151.856 348.4 151.381 348.692 151.089C348.985 150.796 349.46 150.796 349.753 151.089L352.582 153.917L355.41 151.089C355.703 150.796 356.178 150.796 356.471 151.089C356.764 151.382 356.764 151.857 356.471 152.15L353.642 154.978L356.471 157.806Z" fill="black"/>
<rect x="283.5" y="133" width="33.5" height="44" rx="9" fill="#FAFAFC" stroke="#1D1D1F" stroke-width="2"/>
<path d="M294.379 162.25C294.245 162.25 294.125 162.203 294.019 162.11C293.925 162.017 293.879 161.897 293.879 161.75V148.75C293.879 148.603 293.925 148.483 294.019 148.39C294.125 148.297 294.245 148.25 294.379 148.25H296.539C296.752 148.25 296.912 148.31 297.019 148.43C297.139 148.537 297.212 148.623 297.239 148.69L300.759 155.01L304.279 148.69C304.319 148.623 304.385 148.537 304.479 148.43C304.585 148.31 304.752 148.25 304.979 148.25H307.119C307.265 148.25 307.385 148.297 307.479 148.39C307.585 148.483 307.639 148.603 307.639 148.75V161.75C307.639 161.897 307.585 162.017 307.479 162.11C307.385 162.203 307.265 162.25 307.119 162.25H304.739C304.592 162.25 304.465 162.203 304.359 162.11C304.265 162.017 304.219 161.897 304.219 161.75V154.25L301.959 158.43C301.905 158.55 301.825 158.657 301.719 158.75C301.612 158.843 301.465 158.89 301.279 158.89H300.239C300.052 158.89 299.905 158.843 299.799 158.75C299.692 158.657 299.605 158.55 299.539 158.43L297.279 154.25V161.75C297.279 161.897 297.232 162.017 297.139 162.11C297.045 162.203 296.925 162.25 296.779 162.25H294.379Z" fill="#1D1D1F"/>
<rect x="246" y="133" width="33.5" height="44" rx="9" fill="#FAFAFC" stroke="#1D1D1F" stroke-width="2"/>
<path d="M257.463 162.25C257.316 162.25 257.196 162.203 257.103 162.11C257.009 162.017 256.963 161.897 256.963 161.75V148.75C256.963 148.603 257.009 148.483 257.103 148.39C257.196 148.297 257.316 148.25 257.463 148.25H259.583C259.809 148.25 259.969 148.303 260.063 148.41C260.169 148.503 260.236 148.577 260.263 148.63L265.143 156.33V148.75C265.143 148.603 265.189 148.483 265.283 148.39C265.376 148.297 265.496 148.25 265.643 148.25H268.043C268.189 148.25 268.309 148.297 268.403 148.39C268.496 148.483 268.543 148.603 268.543 148.75V161.75C268.543 161.883 268.496 162.003 268.403 162.11C268.309 162.203 268.189 162.25 268.043 162.25H265.903C265.689 162.25 265.529 162.197 265.423 162.09C265.329 161.983 265.269 161.91 265.243 161.87L260.363 154.47V161.75C260.363 161.897 260.316 162.017 260.223 162.11C260.129 162.203 260.009 162.25 259.863 162.25H257.463Z" fill="#1D1D1F"/>
<rect x="208.5" y="133" width="33.5" height="44" rx="9" fill="#FAFAFC" stroke="#1D1D1F" stroke-width="2"/>
<path d="M220.859 162.25C220.712 162.25 220.592 162.203 220.499 162.11C220.406 162.017 220.359 161.897 220.359 161.75V148.75C220.359 148.603 220.406 148.483 220.499 148.39C220.592 148.297 220.712 148.25 220.859 148.25H226.959C228.106 148.25 229.046 148.41 229.779 148.73C230.512 149.05 231.052 149.51 231.399 150.11C231.759 150.697 231.939 151.397 231.939 152.21C231.939 152.69 231.846 153.117 231.659 153.49C231.486 153.85 231.266 154.15 230.999 154.39C230.746 154.63 230.506 154.803 230.279 154.91C230.786 155.15 231.232 155.543 231.619 156.09C232.019 156.637 232.219 157.277 232.219 158.01C232.219 158.89 232.019 159.65 231.619 160.29C231.232 160.917 230.659 161.403 229.899 161.75C229.152 162.083 228.232 162.25 227.139 162.25H220.859ZM223.939 159.65H226.739C227.312 159.65 227.746 159.483 228.039 159.15C228.332 158.817 228.479 158.437 228.479 158.01C228.479 157.543 228.326 157.15 228.019 156.83C227.726 156.51 227.299 156.35 226.739 156.35H223.939V159.65ZM223.939 153.81H226.559C227.106 153.81 227.512 153.67 227.779 153.39C228.059 153.11 228.199 152.75 228.199 152.31C228.199 151.883 228.059 151.537 227.779 151.27C227.512 150.99 227.106 150.85 226.559 150.85H223.939V153.81Z" fill="#1D1D1F"/>
<rect x="171" y="133" width="33.5" height="44" rx="9" fill="#FAFAFC" stroke="#1D1D1F" stroke-width="2"/>
<path d="M185.716 162.25C185.49 162.25 185.31 162.19 185.176 162.07C185.043 161.95 184.95 161.81 184.896 161.65L180.816 148.85C180.79 148.783 180.776 148.723 180.776 148.67C180.776 148.563 180.816 148.47 180.896 148.39C180.99 148.297 181.096 148.25 181.216 148.25H183.696C183.91 148.25 184.076 148.31 184.196 148.43C184.316 148.55 184.39 148.663 184.416 148.77L187.236 158.01L190.076 148.77C190.116 148.663 190.19 148.55 190.296 148.43C190.416 148.31 190.583 148.25 190.796 148.25H193.276C193.396 148.25 193.496 148.297 193.576 148.39C193.67 148.47 193.716 148.563 193.716 148.67C193.716 148.723 193.703 148.783 193.676 148.85L189.596 161.65C189.543 161.81 189.45 161.95 189.316 162.07C189.196 162.19 189.016 162.25 188.776 162.25H185.716Z" fill="#1D1D1F"/>
<rect x="133" y="133" width="33.5" height="44" rx="9" fill="#FAFAFC" stroke="#1D1D1F" stroke-width="2"/>
<path d="M150.369 162.45C149.102 162.45 148.015 162.243 147.109 161.83C146.215 161.417 145.515 160.81 145.009 160.01C144.515 159.21 144.242 158.217 144.189 157.03C144.175 156.483 144.169 155.897 144.169 155.27C144.169 154.643 144.175 154.043 144.189 153.47C144.242 152.31 144.522 151.33 145.029 150.53C145.535 149.717 146.242 149.103 147.149 148.69C148.055 148.263 149.129 148.05 150.369 148.05C151.249 148.05 152.062 148.163 152.809 148.39C153.555 148.603 154.209 148.923 154.769 149.35C155.329 149.763 155.762 150.27 156.069 150.87C156.389 151.457 156.555 152.123 156.569 152.87C156.582 152.99 156.542 153.09 156.449 153.17C156.369 153.25 156.269 153.29 156.149 153.29H153.449C153.275 153.29 153.142 153.257 153.049 153.19C152.955 153.11 152.875 152.97 152.809 152.77C152.622 152.063 152.315 151.583 151.889 151.33C151.475 151.063 150.962 150.93 150.349 150.93C149.615 150.93 149.035 151.137 148.609 151.55C148.182 151.95 147.949 152.623 147.909 153.57C147.869 154.663 147.869 155.783 147.909 156.93C147.949 157.877 148.182 158.557 148.609 158.97C149.035 159.37 149.615 159.57 150.349 159.57C150.962 159.57 151.482 159.437 151.909 159.17C152.335 158.903 152.635 158.423 152.809 157.73C152.862 157.53 152.935 157.397 153.029 157.33C153.135 157.25 153.275 157.21 153.449 157.21H156.149C156.269 157.21 156.369 157.25 156.449 157.33C156.542 157.41 156.582 157.51 156.569 157.63C156.555 158.377 156.389 159.05 156.069 159.65C155.762 160.237 155.329 160.743 154.769 161.17C154.209 161.583 153.555 161.903 152.809 162.13C152.062 162.343 151.249 162.45 150.369 162.45Z" fill="#1D1D1F"/>
<rect x="95.5" y="133" width="33.5" height="44" rx="9" fill="#FAFAFC" stroke="#1D1D1F" stroke-width="2"/>
<path d="M105.256 162.25C105.136 162.25 105.029 162.21 104.936 162.13C104.856 162.037 104.816 161.937 104.816 161.83C104.816 161.79 104.822 161.75 104.836 161.71C104.849 161.67 104.869 161.63 104.896 161.59L109.256 155.11L105.216 148.91C105.176 148.83 105.156 148.75 105.156 148.67C105.156 148.563 105.196 148.47 105.276 148.39C105.356 148.297 105.456 148.25 105.576 148.25H108.476C108.676 148.25 108.829 148.303 108.936 148.41C109.042 148.503 109.116 148.59 109.156 148.67L111.556 152.31L113.976 148.67C114.029 148.59 114.109 148.503 114.216 148.41C114.322 148.303 114.476 148.25 114.676 148.25H117.416C117.536 148.25 117.636 148.297 117.716 148.39C117.809 148.47 117.856 148.563 117.856 148.67C117.856 148.763 117.829 148.843 117.776 148.91L113.716 155.09L118.116 161.59C118.142 161.63 118.156 161.67 118.156 161.71C118.169 161.75 118.176 161.79 118.176 161.83C118.176 161.937 118.136 162.037 118.056 162.13C117.976 162.21 117.876 162.25 117.756 162.25H114.776C114.576 162.25 114.416 162.203 114.296 162.11C114.189 162.003 114.116 161.917 114.076 161.85L111.416 158.01L108.816 161.85C108.776 161.917 108.702 162.003 108.596 162.11C108.489 162.203 108.336 162.25 108.136 162.25H105.256Z" fill="#1D1D1F"/>
<rect x="58" y="133" width="33.5" height="44" rx="9" fill="#FAFAFC" stroke="#1D1D1F" stroke-width="2"/>
<path d="M68.7561 162.25C68.6094 162.25 68.4894 162.203 68.3961 162.11C68.3028 162.003 68.2561 161.883 68.2561 161.75V159.79C68.2561 159.603 68.2894 159.45 68.3561 159.33C68.4361 159.21 68.5028 159.123 68.5561 159.07L74.9961 151.23H68.9361C68.8028 151.23 68.6828 151.183 68.5761 151.09C68.4828 150.997 68.4361 150.877 68.4361 150.73V148.75C68.4361 148.603 68.4828 148.483 68.5761 148.39C68.6828 148.297 68.8028 148.25 68.9361 148.25H79.0161C79.1628 148.25 79.2828 148.297 79.3761 148.39C79.4828 148.483 79.5361 148.603 79.5361 148.75V150.69C79.5361 150.837 79.5094 150.963 79.4561 151.07C79.4161 151.177 79.3561 151.277 79.2761 151.37L73.0161 159.23H79.2561C79.4028 159.23 79.5228 159.283 79.6161 159.39C79.7228 159.483 79.7761 159.603 79.7761 159.75V161.75C79.7761 161.897 79.7228 162.017 79.6161 162.11C79.5228 162.203 79.4028 162.25 79.2561 162.25H68.7561Z" fill="#1D1D1F"/>
<path d="M32.2 133H15.8H15.7547C13.5528 133 11.839 133 10.4642 133.112C9.06833 133.226 7.9342 133.461 6.91409 133.981C5.22063 134.844 3.8438 136.221 2.98094 137.914C2.46117 138.934 2.22636 140.068 2.11231 141.464C1.99999 142.839 1.99999 144.553 2 146.755V146.8V163.2V163.245C1.99999 165.447 1.99999 167.161 2.11231 168.536C2.22636 169.932 2.46117 171.066 2.98094 172.086C3.8438 173.779 5.22063 175.156 6.91409 176.019C7.9342 176.539 9.06833 176.774 10.4642 176.888C11.839 177 13.5528 177 15.7547 177H15.8H32.2H32.2453C34.4472 177 36.161 177 37.5358 176.888C38.9317 176.774 40.0658 176.539 41.0859 176.019C42.7794 175.156 44.1562 173.779 45.0191 172.086C45.5388 171.066 45.7736 169.932 45.8877 168.536C46 167.161 46 165.447 46 163.245V163.2V146.8V146.755C46 144.553 46 142.839 45.8877 141.464C45.7736 140.068 45.5388 138.934 45.0191 137.914C44.1562 136.221 42.7794 134.844 41.0859 133.981C40.0658 133.461 38.9317 133.226 37.5358 133.112C36.161 133 34.4472 133 32.2453 133H32.2Z" fill="#FAFAFC" stroke="#1D1D1F" stroke-width="2"/>
<path fill-rule="evenodd" clip-rule="evenodd" d="M24.702 147.291C24.3139 146.904 23.6862 146.902 23.2966 147.291L14.9485 155.624C14.1692 156.402 14.4325 157.033 15.5282 157.033H19.5157V162.015C19.5157 162.559 19.9604 163 20.5096 163H27.489C28.0379 163 28.4829 162.551 28.4829 162.015V157.033H32.4704C33.5698 157.033 33.8302 156.403 33.0501 155.624L24.702 147.291Z" fill="black"/>
</g>
<g filter="url(#filter3_d_1438_520)">
<rect x="321" y="75" width="33.5" height="44" rx="9" fill="#FAFAFC" stroke="#1D1D1F" stroke-width="2"/>
<path d="M332.933 104.25C332.787 104.25 332.667 104.203 332.573 104.11C332.48 104.017 332.433 103.897 332.433 103.75V90.75C332.433 90.6033 332.48 90.4833 332.573 90.39C332.667 90.2967 332.787 90.25 332.933 90.25H335.573C335.707 90.25 335.82 90.2967 335.913 90.39C336.02 90.4833 336.073 90.6033 336.073 90.75V101.23H342.113C342.26 101.23 342.38 101.283 342.473 101.39C342.58 101.483 342.633 101.603 342.633 101.75V103.75C342.633 103.897 342.58 104.017 342.473 104.11C342.38 104.203 342.26 104.25 342.113 104.25H332.933Z" fill="#1D1D1F"/>
<rect x="283.5" y="75" width="33.5" height="44" rx="9" fill="#FAFAFC" stroke="#1D1D1F" stroke-width="2"/>
<path d="M295.279 104.25C295.132 104.25 295.012 104.203 294.919 104.11C294.826 104.017 294.779 103.897 294.779 103.75V90.75C294.779 90.6033 294.826 90.4833 294.919 90.39C295.012 90.2967 295.132 90.25 295.279 90.25H297.799C297.946 90.25 298.066 90.2967 298.159 90.39C298.252 90.4833 298.299 90.6033 298.299 90.75V95.19L301.999 90.63C302.052 90.55 302.139 90.47 302.259 90.39C302.392 90.2967 302.566 90.25 302.779 90.25H305.659C305.779 90.25 305.879 90.2967 305.959 90.39C306.039 90.47 306.079 90.5633 306.079 90.67C306.079 90.7633 306.052 90.8433 305.999 90.91L301.219 96.95L306.379 103.59C306.432 103.643 306.459 103.723 306.459 103.83C306.459 103.937 306.412 104.037 306.319 104.13C306.239 104.21 306.146 104.25 306.039 104.25H303.059C302.819 104.25 302.632 104.197 302.499 104.09C302.379 103.983 302.299 103.903 302.259 103.85L298.299 98.91V103.75C298.299 103.897 298.252 104.017 298.159 104.11C298.066 104.203 297.946 104.25 297.799 104.25H295.279Z" fill="#1D1D1F"/>
<rect x="246" y="75" width="33.5" height="44" rx="9" fill="#FAFAFC" stroke="#1D1D1F" stroke-width="2"/>
<path d="M261.791 104.45C261.031 104.45 260.304 104.357 259.611 104.17C258.931 103.97 258.324 103.677 257.791 103.29C257.257 102.903 256.831 102.423 256.511 101.85C256.204 101.277 256.037 100.61 256.011 99.85C256.011 99.73 256.051 99.63 256.131 99.55C256.211 99.4567 256.317 99.41 256.451 99.41H259.151C259.337 99.41 259.477 99.4567 259.571 99.55C259.677 99.6433 259.764 99.7833 259.831 99.97C259.897 100.343 260.024 100.65 260.211 100.89C260.397 101.117 260.631 101.29 260.911 101.41C261.204 101.517 261.531 101.57 261.891 101.57C262.557 101.57 263.071 101.357 263.431 100.93C263.791 100.49 263.971 99.85 263.971 99.01V93.23H257.491C257.357 93.23 257.237 93.1833 257.131 93.09C257.037 92.9967 256.991 92.8767 256.991 92.73V90.75C256.991 90.6033 257.037 90.4833 257.131 90.39C257.237 90.2967 257.357 90.25 257.491 90.25H267.171C267.317 90.25 267.437 90.2967 267.531 90.39C267.637 90.4833 267.691 90.6033 267.691 90.75V99.11C267.691 100.27 267.437 101.25 266.931 102.05C266.424 102.837 265.731 103.437 264.851 103.85C263.971 104.25 262.951 104.45 261.791 104.45Z" fill="#1D1D1F"/>
<rect x="208.5" y="75" width="33.5" height="44" rx="9" fill="#FAFAFC" stroke="#1D1D1F" stroke-width="2"/>
<path d="M219.699 104.25C219.552 104.25 219.432 104.203 219.339 104.11C219.245 104.017 219.199 103.897 219.199 103.75V90.75C219.199 90.6033 219.245 90.4833 219.339 90.39C219.432 90.2967 219.552 90.25 219.699 90.25H222.279C222.425 90.25 222.545 90.2967 222.639 90.39C222.732 90.4833 222.779 90.6033 222.779 90.75V95.57H227.719V90.75C227.719 90.6033 227.765 90.4833 227.859 90.39C227.952 90.2967 228.072 90.25 228.219 90.25H230.799C230.945 90.25 231.065 90.2967 231.159 90.39C231.252 90.4833 231.299 90.6033 231.299 90.75V103.75C231.299 103.897 231.252 104.017 231.159 104.11C231.065 104.203 230.945 104.25 230.799 104.25H228.219C228.072 104.25 227.952 104.203 227.859 104.11C227.765 104.017 227.719 103.897 227.719 103.75V98.77H222.779V103.75C222.779 103.897 222.732 104.017 222.639 104.11C222.545 104.203 222.425 104.25 222.279 104.25H219.699Z" fill="#1D1D1F"/>
<rect x="171" y="75" width="33.5" height="44" rx="9" fill="#FAFAFC" stroke="#1D1D1F" stroke-width="2"/>
<path d="M187.983 104.45C186.716 104.45 185.623 104.243 184.703 103.83C183.796 103.403 183.089 102.79 182.583 101.99C182.089 101.177 181.816 100.19 181.763 99.03C181.749 98.4567 181.743 97.85 181.743 97.21C181.743 96.5567 181.749 95.9367 181.763 95.35C181.816 94.2167 182.096 93.2567 182.603 92.47C183.109 91.6833 183.823 91.0833 184.743 90.67C185.663 90.2567 186.743 90.05 187.983 90.05C188.983 90.05 189.869 90.1767 190.643 90.43C191.416 90.67 192.063 90.9967 192.583 91.41C193.116 91.8233 193.516 92.2767 193.783 92.77C194.063 93.2633 194.209 93.75 194.223 94.23C194.236 94.35 194.196 94.45 194.103 94.53C194.023 94.61 193.923 94.65 193.803 94.65H190.883C190.736 94.65 190.623 94.63 190.543 94.59C190.476 94.5367 190.416 94.4633 190.363 94.37C190.269 94.17 190.129 93.9633 189.943 93.75C189.769 93.5233 189.523 93.33 189.203 93.17C188.896 93.01 188.489 92.93 187.983 92.93C187.223 92.93 186.623 93.13 186.183 93.53C185.756 93.93 185.523 94.57 185.483 95.45C185.443 96.5967 185.443 97.7567 185.483 98.93C185.523 99.8633 185.769 100.537 186.223 100.95C186.676 101.363 187.276 101.57 188.023 101.57C188.529 101.57 188.976 101.483 189.363 101.31C189.763 101.137 190.076 100.87 190.303 100.51C190.529 100.137 190.643 99.6633 190.643 99.09V98.71H188.763C188.616 98.71 188.489 98.6633 188.383 98.57C188.289 98.4633 188.243 98.3367 188.243 98.19V96.71C188.243 96.5633 188.289 96.4433 188.383 96.35C188.489 96.2433 188.616 96.19 188.763 96.19H193.803C193.949 96.19 194.069 96.2433 194.163 96.35C194.256 96.4433 194.303 96.5633 194.303 96.71V98.99C194.303 100.137 194.043 101.117 193.523 101.93C193.003 102.743 192.263 103.37 191.303 103.81C190.356 104.237 189.249 104.45 187.983 104.45Z" fill="#1D1D1F"/>
<rect x="133" y="75" width="33.5" height="44" rx="9" fill="#FAFAFC" stroke="#1D1D1F" stroke-width="2"/>
<path d="M145.228 104.25C145.081 104.25 144.961 104.203 144.868 104.11C144.775 104.017 144.728 103.897 144.728 103.75V90.75C144.728 90.6033 144.775 90.4833 144.868 90.39C144.961 90.2967 145.081 90.25 145.228 90.25H154.408C154.555 90.25 154.675 90.2967 154.768 90.39C154.875 90.4833 154.928 90.6033 154.928 90.75V92.77C154.928 92.9167 154.875 93.0367 154.768 93.13C154.675 93.2233 154.555 93.27 154.408 93.27H148.248V96.21H154.008C154.155 96.21 154.275 96.2633 154.368 96.37C154.475 96.4633 154.528 96.5833 154.528 96.73V98.73C154.528 98.8633 154.475 98.9833 154.368 99.09C154.275 99.1833 154.155 99.23 154.008 99.23H148.248V103.75C148.248 103.897 148.201 104.017 148.108 104.11C148.015 104.203 147.895 104.25 147.748 104.25H145.228Z" fill="#1D1D1F"/>
<rect x="95.5" y="75" width="33.5" height="44" rx="9" fill="#FAFAFC" stroke="#1D1D1F" stroke-width="2"/>
<path d="M107.492 104.25C107.345 104.25 107.225 104.203 107.132 104.11C107.038 104.017 106.992 103.897 106.992 103.75V90.75C106.992 90.6033 107.038 90.4833 107.132 90.39C107.225 90.2967 107.345 90.25 107.492 90.25H112.692C113.998 90.25 115.112 90.4633 116.032 90.89C116.952 91.3033 117.658 91.9167 118.152 92.73C118.645 93.53 118.912 94.5233 118.952 95.71C118.965 96.2967 118.972 96.81 118.972 97.25C118.972 97.69 118.965 98.1967 118.952 98.77C118.898 100.01 118.632 101.037 118.152 101.85C117.685 102.663 116.998 103.27 116.092 103.67C115.198 104.057 114.098 104.25 112.792 104.25H107.492ZM110.572 101.37H112.692C113.265 101.37 113.738 101.283 114.112 101.11C114.498 100.923 114.785 100.637 114.972 100.25C115.172 99.8633 115.278 99.3567 115.292 98.73C115.318 98.3433 115.332 97.9967 115.332 97.69C115.345 97.3833 115.345 97.0767 115.332 96.77C115.332 96.4633 115.318 96.1233 115.292 95.75C115.265 94.8433 115.025 94.1833 114.572 93.77C114.132 93.3433 113.472 93.13 112.592 93.13H110.572V101.37Z" fill="#1D1D1F"/>
<rect x="58" y="75" width="33.5" height="44" rx="9" fill="#FAFAFC" stroke="#1D1D1F" stroke-width="2"/>
<path d="M74.7489 104.45C73.4156 104.45 72.3089 104.263 71.4289 103.89C70.5489 103.503 69.8822 103.003 69.4289 102.39C68.9756 101.777 68.7356 101.123 68.7089 100.43C68.7089 100.323 68.7489 100.23 68.8289 100.15C68.9222 100.057 69.0289 100.01 69.1489 100.01H71.6689C71.8556 100.01 71.9956 100.043 72.0889 100.11C72.1956 100.177 72.2889 100.263 72.3689 100.37C72.4756 100.57 72.6222 100.763 72.8089 100.95C73.0089 101.137 73.2622 101.29 73.5689 101.41C73.8889 101.517 74.2822 101.57 74.7489 101.57C75.5222 101.57 76.1022 101.45 76.4889 101.21C76.8889 100.97 77.0889 100.643 77.0889 100.23C77.0889 99.9367 76.9822 99.6967 76.7689 99.51C76.5556 99.31 76.2089 99.1367 75.7289 98.99C75.2622 98.83 74.6356 98.67 73.8489 98.51C72.8356 98.2967 71.9689 98.0233 71.2489 97.69C70.5422 97.3433 70.0022 96.8967 69.6289 96.35C69.2556 95.79 69.0689 95.0967 69.0689 94.27C69.0689 93.4567 69.2956 92.73 69.7489 92.09C70.2156 91.45 70.8622 90.95 71.6889 90.59C72.5156 90.23 73.4956 90.05 74.6289 90.05C75.5489 90.05 76.3556 90.17 77.0489 90.41C77.7556 90.65 78.3489 90.97 78.8289 91.37C79.3089 91.77 79.6689 92.1967 79.9089 92.65C80.1622 93.09 80.2956 93.5233 80.3089 93.95C80.3089 94.0567 80.2689 94.1567 80.1889 94.25C80.1089 94.33 80.0089 94.37 79.8889 94.37H77.2489C77.1022 94.37 76.9756 94.3433 76.8689 94.29C76.7622 94.2367 76.6689 94.15 76.5889 94.03C76.5089 93.7367 76.2956 93.4833 75.9489 93.27C75.6156 93.0433 75.1756 92.93 74.6289 92.93C74.0422 92.93 73.5822 93.0367 73.2489 93.25C72.9289 93.45 72.7689 93.7633 72.7689 94.19C72.7689 94.4567 72.8556 94.69 73.0289 94.89C73.2156 95.09 73.5156 95.2633 73.9289 95.41C74.3556 95.5567 74.9356 95.71 75.6689 95.87C76.8822 96.0967 77.8622 96.3833 78.6089 96.73C79.3556 97.0633 79.9022 97.5033 80.2489 98.05C80.5956 98.5833 80.7689 99.2567 80.7689 100.07C80.7689 100.977 80.5089 101.763 79.9889 102.43C79.4822 103.083 78.7756 103.583 77.8689 103.93C76.9622 104.277 75.9222 104.45 74.7489 104.45Z" fill="#1D1D1F"/>
<rect x="20.5" y="75" width="33.5" height="44" rx="9" fill="#FAFAFC" stroke="#1D1D1F" stroke-width="2"/>
<path d="M30.6918 104.25C30.5851 104.25 30.4851 104.21 30.3918 104.13C30.3118 104.037 30.2718 103.937 30.2718 103.83C30.2718 103.763 30.2785 103.703 30.2918 103.65L34.9918 90.81C35.0318 90.6633 35.1118 90.5367 35.2318 90.43C35.3651 90.31 35.5451 90.25 35.7718 90.25H38.7318C38.9585 90.25 39.1318 90.31 39.2518 90.43C39.3851 90.5367 39.4718 90.6633 39.5118 90.81L44.1918 103.65C44.2185 103.703 44.2318 103.763 44.2318 103.83C44.2318 103.937 44.1851 104.037 44.0918 104.13C44.0118 104.21 43.9118 104.25 43.7918 104.25H41.3318C41.1318 104.25 40.9785 104.203 40.8718 104.11C40.7785 104.003 40.7185 103.91 40.6918 103.83L39.9118 101.79H34.5718L33.8118 103.83C33.7851 103.91 33.7251 104.003 33.6318 104.11C33.5385 104.203 33.3785 104.25 33.1518 104.25H30.6918ZM35.3918 98.91H39.1118L37.2318 93.63L35.3918 98.91Z" fill="#1D1D1F"/>
</g>
<g filter="url(#filter4_d_1438_520)">
<rect x="339.5" y="17" width="33.5" height="44" rx="9" fill="#FAFAFC" stroke="#1D1D1F" stroke-width="2"/>
<path d="M351.392 46.25C351.246 46.25 351.126 46.2033 351.032 46.11C350.939 46.0167 350.892 45.8967 350.892 45.75V32.75C350.892 32.6033 350.939 32.4833 351.032 32.39C351.126 32.2967 351.246 32.25 351.392 32.25H356.992C358.099 32.25 359.059 32.4233 359.872 32.77C360.699 33.1033 361.339 33.61 361.792 34.29C362.259 34.97 362.492 35.83 362.492 36.87C362.492 37.8967 362.259 38.7433 361.792 39.41C361.339 40.0767 360.699 40.57 359.872 40.89C359.059 41.21 358.099 41.37 356.992 41.37H354.612V45.75C354.612 45.8967 354.559 46.0167 354.452 46.11C354.359 46.2033 354.239 46.25 354.092 46.25H351.392ZM354.552 38.61H356.892C357.466 38.61 357.919 38.4633 358.252 38.17C358.599 37.8767 358.772 37.43 358.772 36.83C358.772 36.3233 358.626 35.8967 358.332 35.55C358.039 35.2033 357.559 35.03 356.892 35.03H354.552V38.61Z" fill="#1D1D1F"/>
<rect x="302" y="17" width="33.5" height="44" rx="9" fill="#FAFAFC" stroke="#1D1D1F" stroke-width="2"/>
<path d="M318.751 46.45C317.524 46.45 316.458 46.25 315.551 45.85C314.644 45.45 313.938 44.85 313.431 44.05C312.924 43.2367 312.644 42.2233 312.591 41.01C312.578 40.4367 312.571 39.8633 312.571 39.29C312.571 38.7167 312.578 38.1367 312.591 37.55C312.644 36.35 312.924 35.3433 313.431 34.53C313.951 33.7033 314.664 33.0833 315.571 32.67C316.478 32.2567 317.538 32.05 318.751 32.05C319.951 32.05 321.004 32.2567 321.911 32.67C322.831 33.0833 323.551 33.7033 324.071 34.53C324.591 35.3433 324.871 36.35 324.911 37.55C324.938 38.1367 324.951 38.7167 324.951 39.29C324.951 39.8633 324.938 40.4367 324.911 41.01C324.858 42.2233 324.578 43.2367 324.071 44.05C323.564 44.85 322.858 45.45 321.951 45.85C321.044 46.25 319.978 46.45 318.751 46.45ZM318.751 43.57C319.458 43.57 320.031 43.3567 320.471 42.93C320.924 42.5033 321.164 41.8233 321.191 40.89C321.218 40.3033 321.231 39.75 321.231 39.23C321.231 38.71 321.218 38.17 321.191 37.61C321.164 36.9833 321.044 36.4767 320.831 36.09C320.631 35.69 320.351 35.3967 319.991 35.21C319.631 35.0233 319.218 34.93 318.751 34.93C318.298 34.93 317.891 35.0233 317.531 35.21C317.171 35.3967 316.884 35.69 316.671 36.09C316.458 36.4767 316.338 36.9833 316.311 37.61C316.298 38.17 316.291 38.71 316.291 39.23C316.291 39.75 316.298 40.3033 316.311 40.89C316.351 41.8233 316.591 42.5033 317.031 42.93C317.471 43.3567 318.044 43.57 318.751 43.57Z" fill="#1D1D1F"/>
<rect x="264.5" y="17" width="33.5" height="44" rx="9" fill="#FAFAFC" stroke="#1D1D1F" stroke-width="2"/>
<path d="M280.158 46.25C280.011 46.25 279.891 46.2033 279.798 46.11C279.704 46.0167 279.658 45.8967 279.658 45.75V32.75C279.658 32.6033 279.704 32.4833 279.798 32.39C279.891 32.2967 280.011 32.25 280.158 32.25H282.838C282.984 32.25 283.104 32.2967 283.198 32.39C283.291 32.4833 283.338 32.6033 283.338 32.75V45.75C283.338 45.8967 283.291 46.0167 283.198 46.11C283.104 46.2033 282.984 46.25 282.838 46.25H280.158Z" fill="#1D1D1F"/>
<rect x="227" y="17" width="33.5" height="44" rx="9" fill="#FAFAFC" stroke="#1D1D1F" stroke-width="2"/>
<path d="M243.514 46.45C242.314 46.45 241.261 46.2567 240.354 45.87C239.461 45.47 238.767 44.8633 238.274 44.05C237.781 43.2233 237.534 42.1767 237.534 40.91V32.75C237.534 32.6033 237.581 32.4833 237.674 32.39C237.767 32.2967 237.887 32.25 238.034 32.25H240.614C240.761 32.25 240.881 32.2967 240.974 32.39C241.067 32.4833 241.114 32.6033 241.114 32.75V40.89C241.114 41.7567 241.321 42.41 241.734 42.85C242.161 43.2767 242.754 43.49 243.514 43.49C244.261 43.49 244.841 43.2767 245.254 42.85C245.681 42.41 245.894 41.7567 245.894 40.89V32.75C245.894 32.6033 245.941 32.4833 246.034 32.39C246.141 32.2967 246.261 32.25 246.394 32.25H248.994C249.127 32.25 249.241 32.2967 249.334 32.39C249.441 32.4833 249.494 32.6033 249.494 32.75V40.91C249.494 42.1767 249.247 43.2233 248.754 44.05C248.261 44.8633 247.567 45.47 246.674 45.87C245.781 46.2567 244.727 46.45 243.514 46.45Z" fill="#1D1D1F"/>
<rect x="189.5" y="17" width="33.5" height="44" rx="9" fill="#FAFAFC" stroke="#1D1D1F" stroke-width="2"/>
<path d="M204.693 46.25C204.56 46.25 204.44 46.2033 204.333 46.11C204.24 46.0167 204.193 45.8967 204.193 45.75V41.45L199.553 32.89C199.54 32.85 199.527 32.8167 199.513 32.79C199.5 32.75 199.493 32.71 199.493 32.67C199.493 32.5633 199.533 32.47 199.613 32.39C199.707 32.2967 199.813 32.25 199.933 32.25H202.433C202.633 32.25 202.787 32.3033 202.893 32.41C203.013 32.5033 203.087 32.59 203.113 32.67L205.993 37.83L208.873 32.67C208.913 32.59 208.987 32.5033 209.093 32.41C209.213 32.3033 209.373 32.25 209.573 32.25H212.073C212.193 32.25 212.293 32.2967 212.373 32.39C212.453 32.47 212.493 32.5633 212.493 32.67C212.493 32.71 212.487 32.75 212.473 32.79C212.473 32.8167 212.467 32.85 212.453 32.89L207.793 41.45V45.75C207.793 45.8967 207.747 46.0167 207.653 46.11C207.56 46.2033 207.44 46.25 207.293 46.25H204.693Z" fill="#1D1D1F"/>
<rect x="152" y="17" width="33.5" height="44" rx="9" fill="#FAFAFC" stroke="#1D1D1F" stroke-width="2"/>
<path d="M167.681 46.25C167.535 46.25 167.415 46.2033 167.321 46.11C167.228 46.0167 167.181 45.8967 167.181 45.75V35.39H163.621C163.475 35.39 163.355 35.3433 163.261 35.25C163.168 35.1433 163.121 35.0233 163.121 34.89V32.75C163.121 32.6033 163.168 32.4833 163.261 32.39C163.355 32.2967 163.475 32.25 163.621 32.25H174.381C174.528 32.25 174.648 32.2967 174.741 32.39C174.835 32.4833 174.881 32.6033 174.881 32.75V34.89C174.881 35.0233 174.835 35.1433 174.741 35.25C174.648 35.3433 174.528 35.39 174.381 35.39H170.821V45.75C170.821 45.8967 170.775 46.0167 170.681 46.11C170.588 46.2033 170.468 46.25 170.321 46.25H167.681Z" fill="#1D1D1F"/>
<rect x="114.5" y="17" width="33.5" height="44" rx="9" fill="#FAFAFC" stroke="#1D1D1F" stroke-width="2"/>
<path d="M126.236 46.25C126.089 46.25 125.969 46.2033 125.876 46.11C125.783 46.0167 125.736 45.8967 125.736 45.75V32.75C125.736 32.6033 125.783 32.4833 125.876 32.39C125.969 32.2967 126.089 32.25 126.236 32.25H131.676C133.396 32.25 134.749 32.65 135.736 33.45C136.736 34.2367 137.236 35.3567 137.236 36.81C137.236 37.7567 137.003 38.5567 136.536 39.21C136.083 39.8633 135.483 40.3567 134.736 40.69L137.496 45.61C137.536 45.69 137.556 45.7633 137.556 45.83C137.556 45.9367 137.509 46.0367 137.416 46.13C137.336 46.21 137.236 46.25 137.116 46.25H134.476C134.223 46.25 134.036 46.19 133.916 46.07C133.796 45.9367 133.709 45.8167 133.656 45.71L131.376 41.31H129.316V45.75C129.316 45.8967 129.269 46.0167 129.176 46.11C129.083 46.2033 128.963 46.25 128.816 46.25H126.236ZM129.316 38.49H131.636C132.263 38.49 132.729 38.3367 133.036 38.03C133.356 37.7233 133.516 37.3033 133.516 36.77C133.516 36.25 133.363 35.83 133.056 35.51C132.763 35.19 132.289 35.03 131.636 35.03H129.316V38.49Z" fill="#1D1D1F"/>
<rect x="77" y="17" width="33.5" height="44" rx="9" fill="#FAFAFC" stroke="#1D1D1F" stroke-width="2"/>
<path d="M89.2633 46.25C89.1166 46.25 88.9966 46.2033 88.9033 46.11C88.8099 46.0167 88.7633 45.8967 88.7633 45.75V32.75C88.7633 32.6033 88.8099 32.4833 88.9033 32.39C88.9966 32.2967 89.1166 32.25 89.2633 32.25H98.6033C98.7499 32.25 98.8699 32.2967 98.9633 32.39C99.0566 32.4833 99.1033 32.6033 99.1033 32.75V34.63C99.1033 34.7767 99.0566 34.8967 98.9633 34.99C98.8699 35.0833 98.7499 35.13 98.6033 35.13H92.2233V37.83H98.1633C98.3099 37.83 98.4299 37.8833 98.5233 37.99C98.6166 38.0833 98.6633 38.2033 98.6633 38.35V40.09C98.6633 40.2233 98.6166 40.3433 98.5233 40.45C98.4299 40.5433 98.3099 40.59 98.1633 40.59H92.2233V43.37H98.7633C98.9099 43.37 99.0299 43.4167 99.1233 43.51C99.2166 43.6033 99.2633 43.7233 99.2633 43.87V45.75C99.2633 45.8967 99.2166 46.0167 99.1233 46.11C99.0299 46.2033 98.9099 46.25 98.7633 46.25H89.2633Z" fill="#1D1D1F"/>
<rect x="39.5" y="17" width="33.5" height="44" rx="9" fill="#FAFAFC" stroke="#1D1D1F" stroke-width="2"/>
<path d="M51.8392 46.25C51.6126 46.25 51.4326 46.1833 51.2992 46.05C51.1659 45.9167 51.0859 45.7633 51.0592 45.59L48.8792 32.81C48.8659 32.7833 48.8592 32.7567 48.8592 32.73C48.8592 32.7033 48.8592 32.6833 48.8592 32.67C48.8592 32.5633 48.8992 32.47 48.9792 32.39C49.0726 32.2967 49.1726 32.25 49.2792 32.25H51.7592C52.1326 32.25 52.3392 32.3967 52.3792 32.69L53.6792 40.51L55.1192 35.89C55.1592 35.7833 55.2259 35.67 55.3192 35.55C55.4126 35.4167 55.5659 35.35 55.7792 35.35H57.2192C57.4459 35.35 57.6059 35.4167 57.6992 35.55C57.7926 35.67 57.8526 35.7833 57.8792 35.89L59.3192 40.49L60.6192 32.69C60.6592 32.3967 60.8659 32.25 61.2392 32.25H63.7192C63.8392 32.25 63.9392 32.2967 64.0192 32.39C64.0992 32.47 64.1392 32.5633 64.1392 32.67C64.1392 32.6833 64.1392 32.7033 64.1392 32.73C64.1392 32.7567 64.1392 32.7833 64.1392 32.81L61.9592 45.59C61.9326 45.7633 61.8526 45.9167 61.7192 46.05C61.5859 46.1833 61.4059 46.25 61.1792 46.25H59.2792C59.0526 46.25 58.8792 46.19 58.7592 46.07C58.6392 45.95 58.5592 45.8367 58.5192 45.73L56.4992 40.01L54.4792 45.73C54.4392 45.8367 54.3592 45.95 54.2392 46.07C54.1326 46.19 53.9659 46.25 53.7392 46.25H51.8392Z" fill="#1D1D1F"/>
<rect x="2" y="17" width="33.5" height="44" rx="9" fill="#FAFAFC" stroke="#1D1D1F" stroke-width="2"/>
<path d="M21.9509 47.55C21.7375 47.55 21.5709 47.49 21.4509 47.37C21.3442 47.2633 21.2575 47.17 21.1909 47.09L20.5109 46.19C19.9909 46.3633 19.3975 46.45 18.7309 46.45C17.5042 46.45 16.4375 46.25 15.5309 45.85C14.6375 45.45 13.9309 44.85 13.4109 44.05C12.9042 43.2367 12.6309 42.2233 12.5909 41.01C12.5775 40.4367 12.5709 39.8633 12.5709 39.29C12.5709 38.7167 12.5775 38.1367 12.5909 37.55C12.6309 36.35 12.9109 35.3433 13.4309 34.53C13.9509 33.7033 14.6642 33.0833 15.5709 32.67C16.4775 32.2567 17.5309 32.05 18.7309 32.05C19.9442 32.05 21.0042 32.2567 21.9109 32.67C22.8175 33.0833 23.5309 33.7033 24.0509 34.53C24.5709 35.3433 24.8509 36.35 24.8909 37.55C24.9175 38.1367 24.9309 38.7167 24.9309 39.29C24.9309 39.8633 24.9175 40.4367 24.8909 41.01C24.8109 42.6633 24.3309 43.9433 23.4509 44.85L24.9109 46.93C24.9242 46.9433 24.9375 46.97 24.9509 47.01C24.9642 47.05 24.9709 47.09 24.9709 47.13C24.9842 47.2367 24.9509 47.33 24.8709 47.41C24.7909 47.5033 24.6909 47.55 24.5709 47.55H21.9509ZM18.7309 43.57C19.4375 43.57 20.0109 43.3567 20.4509 42.93C20.9042 42.5033 21.1442 41.8233 21.1709 40.89C21.1975 40.3033 21.2109 39.75 21.2109 39.23C21.2109 38.71 21.1975 38.17 21.1709 37.61C21.1575 36.9833 21.0442 36.4767 20.8309 36.09C20.6175 35.69 20.3309 35.3967 19.9709 35.21C19.6109 35.0233 19.1975 34.93 18.7309 34.93C18.2775 34.93 17.8709 35.0233 17.5109 35.21C17.1509 35.3967 16.8642 35.69 16.6509 36.09C16.4375 36.4767 16.3242 36.9833 16.3109 37.61C16.2975 38.17 16.2909 38.71 16.2909 39.23C16.2909 39.75 16.2975 40.3033 16.3109 40.89C16.3375 41.8233 16.5709 42.5033 17.0109 42.93C17.4642 43.3567 18.0375 43.57 18.7309 43.57Z" fill="#1D1D1F"/>
</g>
</g>
<defs>
<filter id="filter0_d_1438_520" x="0" y="0" width="375" height="274" filterUnits="userSpaceOnUse" color-interpolation-filters="sRGB">
<feFlood flood-opacity="0" result="BackgroundImageFix"/>
<feColorMatrix in="SourceAlpha" type="matrix" values="0 0 0 0 0 0 0 0 0 0 0 0 0 0 0 0 0 0 127 0" result="hardAlpha"/>
<feOffset dy="-2"/>
<feColorMatrix type="matrix" values="0 0 0 0 0 0 0 0 0 0 0 0 0 0 0 0 0 0 1 0"/>
<feBlend mode="normal" in2="BackgroundImageFix" result="effect1_dropShadow_1438_520"/>
<feBlend mode="normal" in="SourceGraphic" in2="effect1_dropShadow_1438_520" result="shape"/>
</filter>
<filter id="filter1_d_1438_520" x="0" y="190" width="374" height="48" filterUnits="userSpaceOnUse" color-interpolation-filters="sRGB">
<feFlood flood-opacity="0" result="BackgroundImageFix"/>
<feColorMatrix in="SourceAlpha" type="matrix" values="0 0 0 0 0 0 0 0 0 0 0 0 0 0 0 0 0 0 127 0" result="hardAlpha"/>
<feOffset dy="2"/>
<feColorMatrix type="matrix" values="0 0 0 0 0.0941176 0 0 0 0 0.0980392 0 0 0 0 0.121569 0 0 0 1 0"/>
<feBlend mode="normal" in2="BackgroundImageFix" result="effect1_dropShadow_1438_520"/>
<feBlend mode="normal" in="SourceGraphic" in2="effect1_dropShadow_1438_520" result="shape"/>
</filter>
<filter id="filter2_d_1438_520" x="1" y="132" width="373" height="48" filterUnits="userSpaceOnUse" color-interpolation-filters="sRGB">
<feFlood flood-opacity="0" result="BackgroundImageFix"/>
<feColorMatrix in="SourceAlpha" type="matrix" values="0 0 0 0 0 0 0 0 0 0 0 0 0 0 0 0 0 0 127 0" result="hardAlpha"/>
<feOffset dy="2"/>
<feColorMatrix type="matrix" values="0 0 0 0 0.0941176 0 0 0 0 0.0980392 0 0 0 0 0.121569 0 0 0 1 0"/>
<feBlend mode="normal" in2="BackgroundImageFix" result="effect1_dropShadow_1438_520"/>
<feBlend mode="normal" in="SourceGraphic" in2="effect1_dropShadow_1438_520" result="shape"/>
</filter>
<filter id="filter3_d_1438_520" x="19.5" y="74" width="336" height="48" filterUnits="userSpaceOnUse" color-interpolation-filters="sRGB">
<feFlood flood-opacity="0" result="BackgroundImageFix"/>
<feColorMatrix in="SourceAlpha" type="matrix" values="0 0 0 0 0 0 0 0 0 0 0 0 0 0 0 0 0 0 127 0" result="hardAlpha"/>
<feOffset dy="2"/>
<feColorMatrix type="matrix" values="0 0 0 0 0.0941176 0 0 0 0 0.0980392 0 0 0 0 0.121569 0 0 0 1 0"/>
<feBlend mode="normal" in2="BackgroundImageFix" result="effect1_dropShadow_1438_520"/>
<feBlend mode="normal" in="SourceGraphic" in2="effect1_dropShadow_1438_520" result="shape"/>
</filter>
<filter id="filter4_d_1438_520" x="1" y="16" width="373" height="48" filterUnits="userSpaceOnUse" color-interpolation-filters="sRGB">
<feFlood flood-opacity="0" result="BackgroundImageFix"/>
<feColorMatrix in="SourceAlpha" type="matrix" values="0 0 0 0 0 0 0 0 0 0 0 0 0 0 0 0 0 0 127 0" result="hardAlpha"/>
<feOffset dy="2"/>
<feColorMatrix type="matrix" values="0 0 0 0 0 0 0 0 0 0 0 0 0 0 0 0 0 0 1 0"/>
<feBlend mode="normal" in2="BackgroundImageFix" result="effect1_dropShadow_1438_520"/>
<feBlend mode="normal" in="SourceGraphic" in2="effect1_dropShadow_1438_520" result="shape"/>
</filter>
</defs>
</svg>
