<svg width="415" height="615" viewBox="0 0 415 615" fill="none" xmlns="http://www.w3.org/2000/svg">
<rect y="74" width="249" height="114" rx="14" fill="#D9D9D9"/>
<rect width="172" height="61" rx="14" fill="#D9D9D9"/>
<rect y="554" width="172" height="61" rx="14" fill="#D9D9D9"/>
<rect x="18" y="201" width="249" height="213" rx="14" fill="#D9D9D9"/>
<rect y="427" width="249" height="114" rx="14" fill="#D9D9D9"/>
<rect y="131" width="249" height="57" rx="14" fill="#1A1A1A" fill-opacity="0.31"/>
<rect y="31" width="172" height="30" rx="14" fill="#1A1A1A" fill-opacity="0.31"/>
<rect y="585" width="172" height="30" rx="14" fill="#1A1A1A" fill-opacity="0.31"/>
<rect x="18" y="308" width="249" height="106" rx="14" fill="#1A1A1A" fill-opacity="0.61"/>
<rect y="484" width="249" height="57" rx="14" fill="#1A1A1A" fill-opacity="0.42"/>
<line x1="172" y1="373" x2="415" y2="373" stroke="#F1B729" stroke-width="4"/>
<path d="M279.739 342.631V339.818H299.375V342.631H291.142V366H287.972V342.631H279.739ZM307.439 339.818V366H304.268V339.818H307.439ZM312.364 342.631V339.818H332V342.631H323.767V366H320.597V342.631H312.364ZM354.075 339.818H357.245V357.153C357.245 358.943 356.824 360.541 355.98 361.947C355.145 363.345 353.964 364.449 352.439 365.259C350.913 366.06 349.123 366.46 347.069 366.46C345.015 366.46 343.225 366.06 341.7 365.259C340.174 364.449 338.99 363.345 338.146 361.947C337.311 360.541 336.893 358.943 336.893 357.153V339.818H340.064V356.898C340.064 358.176 340.345 359.314 340.907 360.311C341.47 361.3 342.271 362.08 343.311 362.651C344.359 363.213 345.612 363.494 347.069 363.494C348.527 363.494 349.779 363.213 350.828 362.651C351.876 362.08 352.677 361.3 353.231 360.311C353.794 359.314 354.075 358.176 354.075 356.898V339.818ZM363.577 366V339.818H366.747V363.188H378.918V366H363.577ZM404.898 352.909C404.898 355.67 404.4 358.057 403.402 360.068C402.405 362.08 401.037 363.631 399.299 364.722C397.56 365.812 395.574 366.358 393.341 366.358C391.108 366.358 389.123 365.812 387.384 364.722C385.645 363.631 384.277 362.08 383.28 360.068C382.283 358.057 381.784 355.67 381.784 352.909C381.784 350.148 382.283 347.761 383.28 345.75C384.277 343.739 385.645 342.188 387.384 341.097C389.123 340.006 391.108 339.46 393.341 339.46C395.574 339.46 397.56 340.006 399.299 341.097C401.037 342.188 402.405 343.739 403.402 345.75C404.4 347.761 404.898 350.148 404.898 352.909ZM401.83 352.909C401.83 350.642 401.451 348.729 400.692 347.169C399.942 345.609 398.924 344.429 397.637 343.628C396.358 342.827 394.926 342.426 393.341 342.426C391.756 342.426 390.32 342.827 389.033 343.628C387.755 344.429 386.736 345.609 385.978 347.169C385.228 348.729 384.853 350.642 384.853 352.909C384.853 355.176 385.228 357.089 385.978 358.649C386.736 360.209 387.755 361.389 389.033 362.19C390.32 362.991 391.756 363.392 393.341 363.392C394.926 363.392 396.358 362.991 397.637 362.19C398.924 361.389 399.942 360.209 400.692 358.649C401.451 357.089 401.83 355.176 401.83 352.909Z" fill="#1E1E1E"/>
</svg>
